<svg width="102" height="60" viewBox="0 0 102 60" fill="none" xmlns="http://www.w3.org/2000/svg">
<g clip-path="url(#clip0_196_2670)">
<path d="M29.297 21.7904C29.297 23.0251 29.4316 24.0261 29.6667 24.7602C29.9354 25.4943 30.2716 26.2951 30.7415 27.1629C30.9095 27.4298 30.9766 27.6967 30.9766 27.9303C30.9766 28.2638 30.775 28.5978 30.3382 28.9313L28.2219 30.3329C27.9197 30.5332 27.617 30.6332 27.3483 30.6332C27.0126 30.6332 26.6764 30.4662 26.3407 30.166C25.8704 29.6655 25.4671 29.1316 25.1314 28.5974C24.7956 28.0302 24.4595 27.3961 24.0902 26.6286C21.47 29.6988 18.1779 31.2336 14.2143 31.2336C11.3925 31.2336 9.14195 30.4329 7.4959 28.831C5.84985 27.2291 5.01025 25.0934 5.01025 22.4238C5.01025 19.5872 6.01793 17.2849 8.06721 15.5494C10.1165 13.8138 12.8373 12.9464 16.2971 12.9464C17.4393 12.9464 18.615 13.0464 19.8579 13.2134C21.1007 13.3803 22.3771 13.6473 23.7209 13.9475V11.5115C23.7209 8.97521 23.1835 7.20674 22.1419 6.17239C21.0672 5.13804 19.253 4.63752 16.6664 4.63752C15.4906 4.63752 14.2813 4.77118 13.0385 5.07141C11.7957 5.37164 10.5864 5.7389 9.41064 6.20611C8.87327 6.43971 8.47004 6.57337 8.23489 6.64C7.99974 6.70663 7.83166 6.73994 7.69752 6.73994C7.22721 6.73994 6.99206 6.4064 6.99206 5.70559V4.07037C6.99206 3.53654 7.05913 3.13597 7.22721 2.90236C7.39529 2.66876 7.69752 2.43516 8.16782 2.20156C9.34357 1.6007 10.7545 1.10018 12.4005 0.700003C14.0462 0.266515 15.7932 0.0662274 17.6405 0.0662274C21.6381 0.0662274 24.5605 0.967321 26.4417 2.76911C28.2894 4.57129 29.23 7.30749 29.23 10.9781V21.79H29.297V21.7904ZM15.6587 26.8626C16.7674 26.8626 17.9092 26.6623 19.1185 26.2618C20.3278 25.8612 21.4025 25.1271 22.3096 24.126C22.847 23.4919 23.2502 22.791 23.4518 21.9903C23.6534 21.1896 23.7876 20.2218 23.7876 19.0871V17.6855C22.8134 17.4519 21.7722 17.2516 20.6971 17.1184C19.6219 16.9851 18.5807 16.9181 17.5395 16.9181C15.289 16.9181 13.6429 17.352 12.5343 18.2531C11.4256 19.1542 10.8882 20.4221 10.8882 22.0906C10.8882 23.6592 11.2914 24.8268 12.131 25.628C12.9371 26.4621 14.1128 26.8626 15.6583 26.8626H15.6587ZM42.6327 30.4666C42.0279 30.4666 41.6251 30.3667 41.3564 30.1331C41.0877 29.9328 40.8525 29.4656 40.6509 28.8318L32.7568 3.03643C32.5552 2.36893 32.4546 1.93504 32.4546 1.70144C32.4546 1.16761 32.7233 0.867378 33.2606 0.867378H36.5528C37.1911 0.867378 37.6275 0.967321 37.8627 1.20092C38.1313 1.40121 38.333 1.86841 38.5346 2.50219L44.1778 24.5932L49.4182 2.50219C49.5862 1.8347 49.7879 1.40081 50.0565 1.20092C50.3252 1.00064 50.7955 0.867378 51.4004 0.867378H54.0876C54.726 0.867378 55.1624 0.967321 55.4315 1.20092C55.7002 1.40121 55.9353 1.86841 56.0698 2.50219L61.3773 24.8602L67.1882 2.50219C67.3898 1.8347 67.625 1.40081 67.8601 1.20092C68.1288 1.00064 68.5656 0.867378 69.17 0.867378H72.294C72.8314 0.867378 73.1336 1.13429 73.1336 1.70144C73.1336 1.86842 73.1001 2.03499 73.0666 2.23527C73.033 2.43556 72.9659 2.70248 72.8314 3.06934L64.7357 28.8647C64.5341 29.5322 64.2989 29.9661 64.0302 30.166C63.7615 30.3659 63.3248 30.4995 62.7539 30.4995H59.865C59.2266 30.4995 58.7902 30.3996 58.5212 30.166C58.2521 29.9324 58.0173 29.4985 57.8828 28.831L52.6759 7.30709L47.503 28.7977C47.3349 29.4652 47.1333 29.8991 46.8646 30.1327C46.5959 30.3663 46.1256 30.4662 45.5208 30.4662H42.6319L42.6327 30.4666ZM85.7978 31.3677C84.0512 31.3677 82.3045 31.1674 80.6249 30.7668C78.9453 30.3663 77.6354 29.9328 76.7619 29.4319C76.2245 29.1316 75.8548 28.7977 75.7207 28.4974C75.5861 28.1972 75.5191 27.8633 75.5191 27.563V25.8612C75.5191 25.1604 75.7878 24.8268 76.2916 24.8268C76.4932 24.8268 76.6948 24.8602 76.8964 24.9268C77.0981 24.9934 77.4003 25.1271 77.736 25.2603C78.8782 25.7608 80.1211 26.1614 81.431 26.4283C82.7748 26.6953 84.0847 26.8289 85.4285 26.8289C87.5449 26.8289 89.1909 26.4617 90.3327 25.7275C91.475 24.9934 92.0794 23.9253 92.0794 22.5574C92.0794 21.623 91.7772 20.8556 91.1723 20.2214C90.5679 19.5872 89.4257 19.0201 87.7796 18.4863L82.9089 16.9847C80.4568 16.2173 78.6427 15.0826 77.5344 13.581C76.4257 12.1128 75.8548 10.4776 75.8548 8.74242C75.8548 7.3408 76.157 6.10616 76.7619 5.0385C77.3667 3.97083 78.1728 3.03643 79.1805 2.3023C80.1881 1.53487 81.3304 0.967321 82.6738 0.567147C84.0172 0.166973 85.4281 0 86.9065 0C87.6455 0 88.418 0.0333144 89.157 0.133659C89.9295 0.233602 90.635 0.367261 91.3404 0.50092C92.0123 0.667893 92.6503 0.834465 93.2551 1.03475C93.8596 1.23504 94.3299 1.43533 94.6661 1.63562C95.1364 1.90253 95.4721 2.16945 95.6737 2.46968C95.8753 2.7366 95.976 3.10386 95.976 3.57106V5.13965C95.976 5.84045 95.7073 6.20731 95.2034 6.20731C94.9347 6.20731 94.498 6.07365 93.9271 5.80674C92.0123 4.93896 89.8624 4.50547 87.4774 4.50547C85.5627 4.50547 84.0512 4.8057 83.0095 5.43988C81.9679 6.07405 81.4306 7.04178 81.4306 8.40967C81.4306 9.34408 81.7663 10.1448 82.4382 10.779C83.1101 11.4132 84.353 12.047 86.1332 12.6145L90.9032 14.1161C93.3218 14.8835 95.0685 15.9516 96.1101 17.3195C97.1517 18.6874 97.6551 20.2559 97.6551 21.9915C97.6551 23.4264 97.3529 24.7277 96.7816 25.8624C96.1772 26.9971 95.3707 27.9981 94.3295 28.7989C93.2883 29.6329 92.0455 30.2338 90.601 30.6677C89.0895 31.1349 87.5105 31.3685 85.7974 31.3685L85.7978 31.3677Z" fill="#252F3E"/>
<path d="M92.1464 47.5862C81.0947 55.6953 65.0383 60.0001 51.2318 60.0001C31.8832 60.0001 14.449 52.8921 1.28134 41.0791C0.240129 40.1447 1.18073 38.8767 2.42355 39.6109C16.6663 47.8198 34.2347 52.7921 52.4076 52.7921C64.6686 52.7921 78.1388 50.2558 90.5339 45.0503C92.3816 44.2163 93.9602 46.2517 92.1464 47.5866V47.5862Z" fill="#FF9900"/>
<path d="M96.7485 42.3799C95.3376 40.5777 87.41 41.5122 83.8157 41.946C82.7409 42.0797 82.5728 41.1453 83.547 40.4445C89.8621 36.0398 100.242 37.3077 101.451 38.776C102.66 40.2775 101.115 50.5889 95.2031 55.5279C94.296 56.2953 93.4229 55.8951 93.8257 54.8937C95.1696 51.59 98.159 44.1484 96.7481 42.3799H96.7485Z" fill="#FF9900"/>
</g>
<defs>
<clipPath id="clip0_196_2670">
<rect width="101" height="60" fill="white" transform="translate(0.833984)"/>
</clipPath>
</defs>
</svg>
