<svg width="307" height="60" viewBox="0 0 307 60" fill="none" xmlns="http://www.w3.org/2000/svg">
<g clip-path="url(#clip0_196_2674)">
<path d="M7.00498 0H73.8558V53.8475C73.8558 57.2441 71.0916 60 67.6848 60H7.00498C3.59818 60 0.833984 57.2441 0.833984 53.8475V6.15254C0.833984 2.75593 3.59818 0 7.00498 0Z" fill="#009687"/>
<path d="M15.7974 17.2881H21.5808L33.1714 30.1694L21.5672 42.7186H15.7974L27.4118 30.1694L15.7974 17.2881Z" fill="white"/>
<path d="M46.8529 30.0033L58.6645 42.7186H52.8471L43.6705 33.1355L34.4939 42.7186H28.5303L40.8247 30.0033L28.5303 17.2881H34.4905L43.6705 27.1186L52.8743 17.2881H58.6645L46.8529 30.0033Z" fill="white"/>
<path d="M87.8301 33.5595V6.44084H108.261V10.8476H92.9641V17.9595H106.234V22.712H92.9743V33.5595H87.8301Z" fill="#009687"/>
<path d="M112.354 33.5595V6.43745H117.454V33.5595H112.354Z" fill="#009687"/>
<path d="M123.574 33.5595V6.43745H128.341L142.288 24.3696V6.44423H147.378V33.5561H142.954L128.681 15.2815V33.5561H123.574V33.5595Z" fill="#009687"/>
<path d="M178.998 33.5595H173.894L171.154 27.1222H158.638L155.888 33.5595H150.645L162.644 6.09507H167.07L178.994 33.5595H178.998ZM169.141 22.3798L164.82 12.2137L160.631 22.3798H169.141Z" fill="#009687"/>
<path d="M182.731 33.5629V6.44084H187.175L201.434 24.6883V6.44084H206.204V33.5629H202.118L187.494 14.912V33.5629H182.731Z" fill="#009687"/>
<path d="M239.854 33.5595V6.44084H244.951V33.5595H239.854Z" fill="#009687"/>
<path d="M277.213 33.5595H271.814L268.924 27.1154H256.545L253.794 33.5595H248.572L260.628 6.09507H265.361L277.213 33.5595ZM267.02 22.3798L262.787 12.5459L258.554 22.3798H267.02Z" fill="#009687"/>
<path d="M280.658 33.5561V6.44084H285.414V28.8137H299.694V33.5561H280.658Z" fill="#009687"/>
<path d="M232.31 13.8985L235.407 10.3493C235.407 10.3493 232.976 6.07812 224.989 6.07812C217.003 6.07812 210.927 11.8205 210.927 20.0002C210.927 28.1798 216.829 33.8612 224.847 33.8612C232.864 33.8612 235.784 29.0137 235.784 29.0137L232.602 25.7527C232.602 25.7527 229.913 29.2137 224.847 29.2137C219.781 29.2137 216.109 24.8273 216.109 19.9968C216.109 14.3866 220.393 10.4917 225.224 10.4917C229.015 10.4917 232.313 13.8951 232.313 13.8951L232.31 13.8985Z" fill="#009687"/>
<path d="M299.694 10.8404V7.45399H298.334V6.44043H301.731V7.45399H300.371V10.8404H299.691H299.694Z" fill="#009687"/>
<path d="M302.421 10.8438V6.44382H303.431L304.259 8.11501C304.354 8.40653 304.57 8.67772 304.614 8.82009C304.665 8.66077 304.784 8.42348 304.889 8.11501L305.845 6.44382H306.834V10.8438H306.154V8.5184L304.889 10.1726H304.362L303.441 8.45399V10.8438H302.417H302.421Z" fill="#009687"/>
<path d="M87.8301 55.1089V42.2682H92.2671C93.2701 42.2682 94.0317 42.3293 94.5587 42.4513C95.2965 42.6208 95.9255 42.9259 96.4491 43.3699C97.1291 43.9428 97.6357 44.675 97.9723 45.5632C98.3089 46.4547 98.4789 47.4716 98.4789 48.614C98.4789 49.5903 98.3633 50.4547 98.1355 51.2072C97.9077 51.9598 97.6153 52.5835 97.2583 53.0784C96.9013 53.5733 96.5103 53.9598 96.0853 54.2445C95.6603 54.5293 95.1469 54.7428 94.5485 54.8886C93.9467 55.0343 93.2599 55.1089 92.4813 55.1089H87.8301ZM89.5335 53.5937H92.2841C93.1341 53.5937 93.8005 53.5157 94.2833 53.3564C94.7661 53.1971 95.1503 52.9767 95.4393 52.692C95.8439 52.2886 96.1567 51.7462 96.3845 51.0682C96.6089 50.3869 96.7211 49.5632 96.7211 48.5937C96.7211 47.2513 96.5001 46.2174 96.0581 45.4988C95.6161 44.7767 95.0789 44.2954 94.4465 44.0479C93.9909 43.8716 93.2531 43.7835 92.2399 43.7835H89.5335V53.5937Z" fill="#5D7D91"/>
<path d="M105.187 55.1089L110.134 42.2682H111.97L117.24 55.1089H115.299L113.796 51.2208H108.41L106.996 55.1089H105.187ZM108.903 49.8377H113.269L111.926 46.2818C111.514 45.2005 111.212 44.3157 111.011 43.6208C110.848 44.4445 110.617 45.2615 110.318 46.0716L108.903 49.8377Z" fill="#5D7D91"/>
<path d="M125.985 55.1089V43.7835H121.742V42.2682H131.948V43.7835H127.688V55.1089H125.985Z" fill="#5D7D91"/>
<path d="M136.389 55.1089L141.336 42.2682H143.172L148.442 55.1089H146.5L144.998 51.2208H139.612L138.198 55.1089H136.389ZM140.105 49.8377H144.471L143.128 46.2818C142.716 45.2005 142.414 44.3157 142.213 43.6208C142.05 44.4445 141.819 45.2615 141.519 46.0716L140.105 49.8377Z" fill="#5D7D91"/>
<path d="M165.214 55.1089V42.2682H174.527V43.7835H166.917V47.7157H174.04V49.2208H166.917V53.5903H174.822V55.1055H165.211L165.214 55.1089Z" fill="#5D7D91"/>
<path d="M179.61 55.1089L184.591 48.4174L180.198 42.2682H182.228L184.563 45.5632C185.05 46.2479 185.396 46.7733 185.6 47.1394C185.886 46.6716 186.226 46.1835 186.62 45.6784L189.211 42.2716H191.064L186.539 48.3225L191.414 55.1089H189.306L186.066 50.5293C185.886 50.2649 185.696 49.9801 185.505 49.6716C185.22 50.1394 185.012 50.4615 184.89 50.6343L181.656 55.1089H179.61Z" fill="#5D7D91"/>
<path d="M206.871 50.6072L208.574 51.0377C208.217 52.4343 207.575 53.4988 206.646 54.231C205.718 54.9632 204.583 55.3293 203.243 55.3293C201.903 55.3293 200.727 55.0479 199.857 54.4852C198.986 53.9225 198.327 53.1055 197.871 52.0377C197.419 50.9699 197.191 49.8208 197.191 48.5971C197.191 47.2615 197.446 46.092 197.959 45.0988C198.473 44.1021 199.2 43.3462 200.146 42.831C201.091 42.3157 202.131 42.0547 203.27 42.0547C204.559 42.0547 205.643 42.3835 206.521 43.0343C207.398 43.6886 208.01 44.6072 208.357 45.7937L206.677 46.1869C206.378 45.2513 205.946 44.5733 205.378 44.1462C204.81 43.7191 204.096 43.5055 203.236 43.5055C202.247 43.5055 201.421 43.7428 200.754 44.214C200.088 44.6886 199.622 45.3225 199.353 46.1191C199.085 46.9157 198.949 47.7394 198.949 48.5835C198.949 49.675 199.109 50.6276 199.428 51.4445C199.748 52.2581 200.244 52.8682 200.917 53.2716C201.591 53.675 202.322 53.875 203.104 53.875C204.059 53.875 204.865 53.6005 205.528 53.0513C206.191 52.5021 206.636 51.6886 206.871 50.6072Z" fill="#5D7D91"/>
<path d="M216.506 55.1089V42.2682H218.21V47.5394H224.904V42.2682H226.608V55.1089H224.904V49.0581H218.21V55.1089H216.506Z" fill="#5D7D91"/>
<path d="M234.152 55.1089L239.1 42.2682H240.935L246.205 55.1089H244.264L242.761 51.2208H237.376L235.961 55.1089H234.152ZM237.869 49.8377H242.234L240.891 46.2818C240.48 45.2005 240.177 44.3157 239.977 43.6208C239.813 44.4445 239.582 45.2615 239.283 46.0716L237.869 49.8377Z" fill="#5D7D91"/>
<path d="M253.328 55.1089V42.2682H255.076L261.842 52.3496V42.2682H263.477V55.1089H261.73L254.964 45.0174V55.1089H253.328Z" fill="#5D7D91"/>
<path d="M277.465 48.5699L282.922 48.5598V53.3259C282.086 53.9903 281.222 54.492 280.331 54.8276C279.44 55.1632 278.526 55.3327 277.591 55.3327C276.326 55.3327 275.177 55.0615 274.143 54.5225C273.11 53.9835 272.328 53.2004 271.801 52.1801C271.274 51.1598 271.008 50.0174 271.008 48.7564C271.008 47.4954 271.27 46.3394 271.794 45.2581C272.317 44.1767 273.072 43.3699 274.055 42.8445C275.037 42.3191 276.173 42.0547 277.455 42.0547C278.386 42.0547 279.226 42.2038 279.981 42.5055C280.732 42.8072 281.324 43.2242 281.752 43.7632C282.181 44.3021 282.504 45.0005 282.728 45.8649L281.191 46.2852C280.998 45.631 280.756 45.1157 280.471 44.7428C280.185 44.3699 279.774 44.0682 279.24 43.8445C278.706 43.6208 278.114 43.5089 277.465 43.5089C276.686 43.5089 276.013 43.6276 275.445 43.8649C274.878 44.1021 274.419 44.4106 274.072 44.7971C273.725 45.1835 273.453 45.6072 273.259 46.0682C272.929 46.8615 272.766 47.7225 272.766 48.6513C272.766 49.7971 272.963 50.753 273.358 51.5225C273.752 52.292 274.33 52.8649 275.085 53.2377C275.84 53.6106 276.642 53.7971 277.492 53.7971C278.23 53.7971 278.951 53.6547 279.655 53.3733C280.358 53.0886 280.889 52.7869 281.253 52.4682V50.0784H277.465V48.5699Z" fill="#5D7D91"/>
<path d="M291.249 55.1089V42.2682H300.561V43.7835H292.952V47.7157H300.075V49.2208H292.952V53.5903H300.857V55.1055H291.245L291.249 55.1089Z" fill="#5D7D91"/>
</g>
<defs>
<clipPath id="clip0_196_2674">
<rect width="306" height="60" fill="white" transform="translate(0.833984)"/>
</clipPath>
</defs>
</svg>
