<svg width="73" height="72" viewBox="0 0 73 72" fill="none" xmlns="http://www.w3.org/2000/svg">
<ellipse cx="36.2148" cy="36" rx="35.3808" ry="36" fill="#CBA560"/>
<path fill-rule="evenodd" clip-rule="evenodd" d="M31.5703 33.0563L30.0257 34.3013C29.6672 34.5977 29.1431 34.5977 28.7846 34.3606C28.7846 36.6135 28.5639 35.2795 29.6672 37.0581C29.9154 37.4731 30.1361 37.9178 30.3567 38.3921C30.467 38.6588 30.274 38.9849 29.9981 38.9849C29.4741 38.9849 29.4465 37.7695 28.233 36.4356C28.1502 36.3763 28.0123 36.317 28.0123 36.0502V33.2341C28.0123 32.8191 28.4812 32.6709 28.7018 32.9673C29.5017 34.0345 29.088 34.0048 31.1014 32.3745C31.4048 32.1373 31.0462 31.663 30.7428 31.9002C30.1085 32.4337 29.5293 33.1155 29.1983 32.6412C28.9501 32.2855 28.8949 32.0484 28.3433 31.9891H25.7231C24.5371 32.1077 23.6269 34.7459 23.8476 35.1313C23.9855 35.3388 24.2889 35.2795 24.3716 35.0127C24.4544 34.4495 25.1163 32.3448 25.861 32.7598C25.9989 32.8487 26.0816 32.9673 26.0816 33.1452V36.3763C26.0816 37.1174 27.4883 36.4949 27.8192 36.8802L28.8397 38.3624C29.088 38.8367 28.3984 39.2814 28.1502 38.7774L27.571 37.9178L27.3504 37.6213H26.385C26.3299 37.6213 26.2747 37.6213 26.2195 37.6213C25.9162 37.562 25.6679 37.4138 25.5024 37.147C25.3645 36.9099 25.2818 36.6431 25.2818 36.3763V34.6273C25.2266 34.8349 25.1715 35.0127 25.1439 35.1609C24.8957 36.6727 22.7719 36.2577 23.0201 34.7459C23.2684 33.1748 24.0682 31.6037 25.5576 31.1591H28.5639C29.3638 31.4259 29.3086 31.4259 29.5844 31.8112C30.1085 31.3962 30.4946 30.9219 31.0738 31.0109C32.0116 31.1294 32.3425 32.4337 31.5703 33.0563Z" fill="#483C32"/>
<path fill-rule="evenodd" clip-rule="evenodd" d="M28 37.7647C27.7909 39.3529 27.2797 41.1176 26.6988 42.4118C26.5362 42.7941 26.2341 43 25.9088 43C25.235 43 24.7703 42.0588 25.1188 41.2941C25.63 40.1471 26.0947 38.3824 26.2574 37C26.3968 37.2353 26.6291 37.4118 26.8615 37.4706C26.6756 38.9118 26.2109 40.5882 25.6997 41.7353C25.5371 42.0882 25.9553 42.3824 26.0947 42.0294C26.6524 40.7941 27.1403 39.0294 27.3262 37.5H27.7909L28 37.7647Z" fill="#483C32"/>
<path fill-rule="evenodd" clip-rule="evenodd" d="M53.6175 48H20.3841C20.0866 48 19.8973 47.6811 20.0596 47.4154C20.0596 47.4154 20.8979 45.9538 21.7632 44.4657C23.602 41.2769 23.5749 41.3035 23.8724 41.3301H26.955L28.4153 37.7958C28.4693 37.6629 28.6046 37.5566 28.7668 37.5566H30.903L34.4725 29.2392C34.5265 29.0797 34.6617 29 34.824 29H39.1506C39.3128 29 39.475 29.0797 39.5291 29.2392L43.0985 37.5566H45.2078C45.37 37.5566 45.5322 37.6629 45.5863 37.7958L47.0465 41.3301H50.1292C50.2374 41.3301 50.3726 41.3566 50.4537 41.4629C50.67 41.7287 53.1849 46.0867 53.969 47.4154C54.0772 47.7077 53.8879 48 53.6175 48ZM21.0331 47.2294H52.9144C51.7787 45.2895 50.3185 42.765 49.9129 42.1007H46.7491C46.5868 42.1007 46.4516 41.9944 46.3976 41.8615L44.9373 38.3538H42.8011C42.6389 38.3538 42.5036 38.2476 42.4496 38.1147L38.8801 29.7972H35.0944L31.525 38.1147C31.4709 38.2476 31.3087 38.3538 31.1464 38.3538H29.0372L27.577 41.8615C27.5229 42.021 27.3607 42.1007 27.1984 42.1007H24.0617C23.656 42.765 22.1417 45.3161 21.0331 47.2294Z" fill="#483C32"/>
<path fill-rule="evenodd" clip-rule="evenodd" d="M38.0448 28L36.9996 27.4355L36.0978 27.9566C35.8928 28.0868 35.6264 27.8915 35.6674 27.6309L35.8518 26.5672L35.0935 25.8073C34.9091 25.6336 35.0115 25.308 35.278 25.2863L36.3027 25.156L36.7331 24.1791C36.8356 23.9403 37.1635 23.9403 37.266 24.1791L37.7169 25.156L38.7417 25.2863C38.9876 25.308 39.0901 25.6554 38.9056 25.8073L38.1678 26.5672L38.3522 27.6309C38.3727 27.8263 38.2293 28 38.0448 28ZM36.9996 26.7625L37.6349 27.0882C37.4914 26.2198 37.4095 26.4152 38.0243 25.8073C37.184 25.6988 37.3685 25.829 36.9996 25.0041C36.6511 25.8073 36.8151 25.6988 35.9748 25.8073C36.5897 26.4152 36.5282 26.2198 36.3642 27.0882L36.9996 26.7625Z" fill="#483C32"/>
<path fill-rule="evenodd" clip-rule="evenodd" d="M27.505 31C25.4851 31 25.5116 28 27.505 28C29.4983 28 29.4983 31 27.505 31ZM27.505 28.7632C26.5216 28.7632 26.5216 30.2632 27.505 30.2632C28.4884 30.2632 28.4884 28.7632 27.505 28.7632Z" fill="#483C32"/>
</svg>
