<svg width="136" height="41" viewBox="0 0 136 41" fill="none" xmlns="http://www.w3.org/2000/svg">
<g clip-path="url(#clip0_468_9635)">
<path d="M2.14509 4.14023L3.05137 1.02383C3.14042 0.712724 3.42331 0.5 3.74024 0.5H28.139C28.4376 0.5 28.7048 0.688792 28.8122 0.970651L30.004 4.16416C30.1087 4.44868 30.3785 4.63481 30.6771 4.63481C31.0019 4.63481 31.2874 4.85817 31.3712 5.17726L31.9763 7.47733C32.0968 7.94001 31.7537 8.3947 31.2822 8.3947H0.720188C0.238236 8.3947 -0.110131 7.92139 0.0313117 7.45074L0.71233 5.18524C0.801386 4.89274 1.0607 4.68534 1.36192 4.66938L1.4955 4.6614C1.79934 4.64545 2.06127 4.43539 2.14771 4.14023H2.14509Z" fill="#7F4D2C"/>
<path d="M2.14509 4.14062H28.6367L30.004 4.16456C30.1087 4.44907 30.3785 4.63521 30.6771 4.63521C31.0019 4.63521 31.2874 4.85857 31.3712 5.17765L31.9763 7.47773C32.0968 7.9404 31.7537 8.3951 31.2822 8.3951H0.720188C0.238236 8.3951 -0.110131 7.92179 0.0313117 7.45114L0.71233 5.18563C0.801386 4.89313 1.0607 4.68573 1.36192 4.66978L1.4955 4.6618C1.79934 4.64584 2.06127 4.43578 2.14771 4.14062H2.14509Z" fill="#CCA358"/>
<path d="M27.838 9.04395H17.9213C17.5336 9.04395 17.2036 9.3258 17.1355 9.71136L16.1952 15.0321C16.1533 15.2688 15.8206 15.2688 15.7787 15.0321L14.8384 9.59437C14.7834 9.27794 14.511 9.0466 14.194 9.0466H4.1621C3.14319 9.0466 2.36264 9.96663 2.51456 10.9904L6.68187 39.0646C6.80498 39.8915 7.50433 40.5031 8.32941 40.5031H11.2683C11.7109 40.5031 12.0724 40.1388 12.0724 39.6868V28.9416L15.5377 39.2613C15.6084 39.5804 16.0511 39.5884 16.1323 39.272L20.2027 28.9416V39.7027C20.2027 40.1441 20.5563 40.5031 20.9911 40.5031H23.6916C24.5167 40.5031 25.2187 39.8915 25.3391 39.0619L29.4881 10.9877C29.64 9.96397 28.8595 9.04395 27.8406 9.04395H27.838Z" fill="#1E3932"/>
</g>
<path d="M43.512 28.5V11.7H47.976L52.584 20.772L57.192 11.7H61.656V28.5H58.368V16.14L52.536 27.3L46.728 16.092V28.5H43.512ZM72.9081 28.764C71.6601 28.764 70.5001 28.548 69.4281 28.116C68.3561 27.668 67.4121 27.052 66.5961 26.268C65.7961 25.468 65.1641 24.548 64.7001 23.508C64.2521 22.452 64.0281 21.316 64.0281 20.1C64.0281 18.884 64.2521 17.756 64.7001 16.716C65.1641 15.66 65.7961 14.74 66.5961 13.956C67.4121 13.156 68.3561 12.54 69.4281 12.108C70.5001 11.66 71.6601 11.436 72.9081 11.436C74.1561 11.436 75.3161 11.66 76.3881 12.108C77.4761 12.54 78.4201 13.156 79.2201 13.956C80.0361 14.74 80.6681 15.66 81.1161 16.716C81.5641 17.756 81.7881 18.884 81.7881 20.1C81.7881 21.316 81.5641 22.452 81.1161 23.508C80.6681 24.548 80.0361 25.468 79.2201 26.268C78.4201 27.052 77.4761 27.668 76.3881 28.116C75.3161 28.548 74.1561 28.764 72.9081 28.764ZM72.9081 25.572C73.6761 25.572 74.3801 25.436 75.0201 25.164C75.6601 24.876 76.2201 24.492 76.7001 24.012C77.1801 23.516 77.5561 22.932 77.8281 22.26C78.1001 21.588 78.2361 20.868 78.2361 20.1C78.2361 19.316 78.1001 18.596 77.8281 17.94C77.5561 17.268 77.1801 16.692 76.7001 16.212C76.2201 15.716 75.6601 15.332 75.0201 15.06C74.3801 14.772 73.6761 14.628 72.9081 14.628C72.1561 14.628 71.4601 14.772 70.8201 15.06C70.1801 15.332 69.6201 15.716 69.1401 16.212C68.6601 16.692 68.2841 17.268 68.0121 17.94C67.7401 18.596 67.6041 19.308 67.6041 20.076C67.6041 20.86 67.7401 21.588 68.0121 22.26C68.2841 22.932 68.6601 23.516 69.1401 24.012C69.6201 24.492 70.1801 24.876 70.8201 25.164C71.4601 25.436 72.1561 25.572 72.9081 25.572ZM92.4795 28.74C91.2315 28.74 90.0635 28.524 88.9755 28.092C87.8875 27.644 86.9355 27.028 86.1195 26.244C85.3195 25.46 84.6875 24.548 84.2235 23.508C83.7755 22.452 83.5515 21.316 83.5515 20.1C83.5515 18.868 83.7755 17.732 84.2235 16.692C84.6875 15.636 85.3275 14.716 86.1435 13.932C86.9595 13.148 87.9035 12.54 88.9755 12.108C90.0635 11.66 91.2315 11.436 92.4795 11.436C93.4075 11.436 94.3035 11.564 95.1675 11.82C96.0315 12.076 96.8315 12.436 97.5675 12.9C98.3195 13.364 98.9595 13.924 99.4875 14.58L97.1355 16.908C96.5275 16.156 95.8235 15.588 95.0235 15.204C94.2395 14.82 93.3915 14.628 92.4795 14.628C91.7275 14.628 91.0235 14.772 90.3675 15.06C89.7115 15.332 89.1435 15.716 88.6635 16.212C88.1835 16.692 87.8075 17.268 87.5355 17.94C87.2635 18.596 87.1275 19.316 87.1275 20.1C87.1275 20.868 87.2635 21.588 87.5355 22.26C87.8075 22.916 88.1915 23.492 88.6875 23.988C89.1835 24.468 89.7595 24.844 90.4155 25.116C91.0875 25.388 91.8155 25.524 92.5995 25.524C93.4795 25.524 94.3035 25.34 95.0715 24.972C95.8395 24.604 96.5195 24.076 97.1115 23.388L99.3915 25.644C98.8635 26.284 98.2315 26.836 97.4955 27.3C96.7595 27.764 95.9595 28.124 95.0955 28.38C94.2475 28.62 93.3755 28.74 92.4795 28.74ZM101.426 28.5V11.7H104.906V18.468H112.634V11.7H116.114V28.5H112.634V21.612H104.906V28.5H101.426ZM117.56 28.5L124.472 11.7H128.48L135.32 28.5H131.552L129.848 24.084H122.912L121.184 28.5H117.56ZM123.992 21.3H128.792L126.392 15.108L123.992 21.3Z" fill="#1C352D"/>
<path d="M78.2633 37.5L80.5673 31.9H81.9033L84.1833 37.5H82.9273L82.3593 36.028H80.0473L79.4713 37.5H78.2633ZM80.4073 35.1H82.0073L81.2073 33.036L80.4073 35.1ZM87.9443 37.58C87.5336 37.58 87.163 37.4867 86.8323 37.3C86.5016 37.108 86.2403 36.8493 86.0483 36.524C85.8563 36.1933 85.7603 35.8253 85.7603 35.42C85.7603 35.0093 85.8563 34.6413 86.0483 34.316C86.2403 33.9907 86.5016 33.732 86.8323 33.54C87.163 33.348 87.5336 33.252 87.9443 33.252C88.275 33.252 88.5896 33.316 88.8883 33.444C89.1923 33.572 89.4536 33.756 89.6723 33.996L89.0003 34.708C88.8456 34.5373 88.683 34.412 88.5123 34.332C88.347 34.2467 88.1656 34.204 87.9683 34.204C87.755 34.204 87.563 34.2573 87.3923 34.364C87.227 34.4707 87.0936 34.6147 86.9923 34.796C86.8963 34.9773 86.8483 35.1853 86.8483 35.42C86.8483 35.644 86.8963 35.8493 86.9923 36.036C87.0936 36.2173 87.2323 36.3613 87.4083 36.468C87.5843 36.5693 87.779 36.62 87.9923 36.62C88.179 36.62 88.3523 36.5827 88.5123 36.508C88.6776 36.428 88.835 36.3107 88.9843 36.156L89.6403 36.844C89.427 37.0733 89.171 37.2547 88.8723 37.388C88.5736 37.516 88.2643 37.58 87.9443 37.58ZM93.6849 37.58C93.2743 37.58 92.9036 37.4867 92.5729 37.3C92.2423 37.108 91.9809 36.8493 91.7889 36.524C91.5969 36.1933 91.5009 35.8253 91.5009 35.42C91.5009 35.0093 91.5969 34.6413 91.7889 34.316C91.9809 33.9907 92.2423 33.732 92.5729 33.54C92.9036 33.348 93.2743 33.252 93.6849 33.252C94.0156 33.252 94.3303 33.316 94.6289 33.444C94.9329 33.572 95.1943 33.756 95.4129 33.996L94.7409 34.708C94.5863 34.5373 94.4236 34.412 94.2529 34.332C94.0876 34.2467 93.9063 34.204 93.7089 34.204C93.4956 34.204 93.3036 34.2573 93.1329 34.364C92.9676 34.4707 92.8343 34.6147 92.7329 34.796C92.6369 34.9773 92.5889 35.1853 92.5889 35.42C92.5889 35.644 92.6369 35.8493 92.7329 36.036C92.8343 36.2173 92.9729 36.3613 93.1489 36.468C93.3249 36.5693 93.5196 36.62 93.7329 36.62C93.9196 36.62 94.0929 36.5827 94.2529 36.508C94.4183 36.428 94.5756 36.3107 94.7249 36.156L95.3809 36.844C95.1676 37.0733 94.9116 37.2547 94.6129 37.388C94.3143 37.516 94.0049 37.58 93.6849 37.58ZM99.4656 37.58C99.0496 37.58 98.6736 37.484 98.3376 37.292C98.0016 37.1 97.7349 36.8413 97.5376 36.516C97.3402 36.1907 97.2416 35.8253 97.2416 35.42C97.2416 35.0147 97.3376 34.6493 97.5296 34.324C97.7269 33.9933 97.9936 33.732 98.3296 33.54C98.6709 33.348 99.0496 33.252 99.4656 33.252C99.8816 33.252 100.258 33.348 100.594 33.54C100.935 33.732 101.202 33.9933 101.394 34.324C101.591 34.6493 101.69 35.0147 101.69 35.42C101.69 35.8253 101.591 36.1907 101.394 36.516C101.202 36.8413 100.938 37.1 100.602 37.292C100.266 37.484 99.8869 37.58 99.4656 37.58ZM99.4656 36.628C99.6842 36.628 99.8789 36.5747 100.05 36.468C100.226 36.3613 100.364 36.2173 100.466 36.036C100.572 35.8493 100.626 35.644 100.626 35.42C100.626 35.1907 100.572 34.9853 100.466 34.804C100.364 34.6227 100.226 34.4787 100.05 34.372C99.8789 34.26 99.6842 34.204 99.4656 34.204C99.2522 34.204 99.0576 34.26 98.8816 34.372C98.7056 34.4787 98.5669 34.6227 98.4656 34.804C98.3642 34.9853 98.3136 35.1907 98.3136 35.42C98.3136 35.644 98.3642 35.8493 98.4656 36.036C98.5669 36.2173 98.7056 36.3613 98.8816 36.468C99.0576 36.5747 99.2522 36.628 99.4656 36.628ZM105.579 37.58C105.259 37.58 104.974 37.5107 104.723 37.372C104.478 37.228 104.283 37.0307 104.139 36.78C104.001 36.5293 103.931 36.2413 103.931 35.916V33.332H105.027V35.756C105.027 36.0227 105.105 36.236 105.259 36.396C105.419 36.556 105.633 36.636 105.899 36.636C106.081 36.636 106.243 36.6013 106.387 36.532C106.537 36.4573 106.659 36.3533 106.755 36.22V33.332H107.851V37.5H106.755V37.164C106.435 37.4413 106.043 37.58 105.579 37.58ZM110.305 37.5V33.332H111.401V33.676C111.716 33.3933 112.105 33.252 112.569 33.252C112.895 33.252 113.18 33.324 113.425 33.468C113.676 33.6067 113.871 33.8013 114.009 34.052C114.148 34.2973 114.217 34.5853 114.217 34.916V37.5H113.121V35.076C113.121 34.804 113.044 34.5907 112.889 34.436C112.735 34.276 112.524 34.196 112.257 34.196C112.071 34.196 111.905 34.2333 111.761 34.308C111.617 34.3773 111.497 34.4787 111.401 34.612V37.5H110.305ZM118.506 37.564C118.042 37.564 117.69 37.46 117.45 37.252C117.216 37.0387 117.098 36.7293 117.098 36.324V34.244H116.242V33.332H117.098V32.268L118.194 32.02V33.332H119.386V34.244H118.194V36.1C118.194 36.292 118.237 36.4307 118.322 36.516C118.408 36.596 118.557 36.636 118.77 36.636C118.877 36.636 118.973 36.6307 119.058 36.62C119.149 36.604 119.248 36.5773 119.354 36.54V37.444C119.242 37.4813 119.101 37.5107 118.93 37.532C118.765 37.5533 118.624 37.564 118.506 37.564ZM121.521 37.5V33.332H122.617V37.5H121.521ZM122.065 32.836C121.894 32.836 121.748 32.7747 121.625 32.652C121.502 32.5293 121.441 32.3827 121.441 32.212C121.441 32.036 121.502 31.8893 121.625 31.772C121.748 31.6493 121.894 31.588 122.065 31.588C122.241 31.588 122.388 31.6493 122.505 31.772C122.628 31.8893 122.689 32.036 122.689 32.212C122.689 32.3827 122.628 32.5293 122.505 32.652C122.388 32.7747 122.241 32.836 122.065 32.836ZM125.074 37.5V33.332H126.17V33.676C126.485 33.3933 126.874 33.252 127.338 33.252C127.664 33.252 127.949 33.324 128.194 33.468C128.445 33.6067 128.64 33.8013 128.778 34.052C128.917 34.2973 128.986 34.5853 128.986 34.916V37.5H127.89V35.076C127.89 34.804 127.813 34.5907 127.658 34.436C127.504 34.276 127.293 34.196 127.026 34.196C126.84 34.196 126.674 34.2333 126.53 34.308C126.386 34.3773 126.266 34.4787 126.17 34.612V37.5H125.074ZM133.512 39.212C133.192 39.212 132.883 39.1773 132.584 39.108C132.286 39.044 132.016 38.9507 131.776 38.828L132.16 37.98C132.39 38.092 132.614 38.1747 132.832 38.228C133.051 38.2813 133.27 38.308 133.488 38.308C133.814 38.308 134.059 38.2387 134.224 38.1C134.395 37.9613 134.48 37.7533 134.48 37.476V37.148C134.139 37.3987 133.758 37.524 133.336 37.524C132.942 37.524 132.584 37.4307 132.264 37.244C131.95 37.052 131.696 36.7933 131.504 36.468C131.318 36.1427 131.224 35.7827 131.224 35.388C131.224 34.9933 131.318 34.636 131.504 34.316C131.696 33.996 131.955 33.7427 132.28 33.556C132.606 33.364 132.968 33.268 133.368 33.268C133.571 33.268 133.768 33.2973 133.96 33.356C134.152 33.4147 134.331 33.4973 134.496 33.604V33.332H135.576V37.492C135.576 38.0413 135.398 38.4653 135.04 38.764C134.688 39.0627 134.179 39.212 133.512 39.212ZM133.504 36.596C133.707 36.596 133.891 36.564 134.056 36.5C134.222 36.4307 134.363 36.3347 134.48 36.212V34.58C134.363 34.4627 134.219 34.372 134.048 34.308C133.883 34.2387 133.704 34.204 133.512 34.204C133.283 34.204 133.078 34.2573 132.896 34.364C132.715 34.4653 132.571 34.6067 132.464 34.788C132.358 34.964 132.304 35.164 132.304 35.388C132.304 35.6173 132.355 35.8227 132.456 36.004C132.563 36.1853 132.707 36.3293 132.888 36.436C133.075 36.5427 133.28 36.596 133.504 36.596Z" fill="#81422C"/>
<defs>
<clipPath id="clip0_468_9635">
<rect width="32" height="40" fill="white" transform="translate(0 0.5)"/>
</clipPath>
</defs>
</svg>
