<svg width="137" height="58" viewBox="0 0 137 58" fill="none" xmlns="http://www.w3.org/2000/svg">
<g clip-path="url(#clip0_462_8030)">
<path d="M2.97907 3.64023L3.88535 0.523832C3.97441 0.212724 4.25729 0 4.57423 0H28.973C29.2716 0 29.5388 0.188792 29.6462 0.470651L30.838 3.66416C30.9427 3.94868 31.2125 4.13481 31.5111 4.13481C31.8359 4.13481 32.1214 4.35817 32.2052 4.67726L32.8103 6.97733C32.9308 7.44001 32.5876 7.8947 32.1162 7.8947H1.55417C1.07222 7.8947 0.723854 7.42139 0.865296 6.95074L1.54631 4.68524C1.63537 4.39274 1.89468 4.18534 2.1959 4.16938L2.32949 4.1614C2.63332 4.14545 2.89525 3.93539 2.98169 3.64023H2.97907Z" fill="#7F4D2C"/>
<path d="M2.97907 3.64014H29.4707L30.838 3.66407C30.9427 3.94859 31.2125 4.13472 31.5111 4.13472C31.8359 4.13472 32.1214 4.35808 32.2052 4.67716L32.8103 6.97724C32.9308 7.43991 32.5876 7.89461 32.1162 7.89461H1.55417C1.07222 7.89461 0.723854 7.4213 0.865296 6.95065L1.54631 4.68514C1.63537 4.39265 1.89468 4.18524 2.1959 4.16929L2.32949 4.16131C2.63332 4.14536 2.89525 3.93529 2.98169 3.64014H2.97907Z" fill="#CCA358"/>
<path d="M28.6719 8.54346H18.7553C18.3676 8.54346 18.0376 8.82532 17.9695 9.21088L17.0292 14.5316C16.9872 14.7683 16.6546 14.7683 16.6127 14.5316L15.6724 9.09388C15.6174 8.77745 15.3449 8.54612 15.028 8.54612H4.99609C3.97718 8.54612 3.19663 9.46615 3.34855 10.4899L7.51585 38.5641C7.63896 39.391 8.33831 40.0026 9.16339 40.0026H12.1023C12.5449 40.0026 12.9064 39.6383 12.9064 39.1863V28.4411L16.3717 38.7608C16.4424 39.0799 16.8851 39.0879 16.9663 38.7715L21.0367 28.4411V39.2022C21.0367 39.6436 21.3903 40.0026 21.8251 40.0026H24.5256C25.3507 40.0026 26.0526 39.391 26.1731 38.5614L30.3221 10.4872C30.474 9.46349 29.6935 8.54346 28.6746 8.54346H28.6719Z" fill="white"/>
</g>
<path d="M42.834 28.7258V11.2742H47.4046L52.1226 20.6981L56.8406 11.2742H61.4111V28.7258H58.0446V15.8864L52.0734 27.4792L46.1268 15.8366V28.7258H42.834Z" fill="white"/>
<path d="M72.9318 29C71.654 29 70.4663 28.7756 69.3687 28.3269C68.2712 27.8615 67.3046 27.2216 66.4691 26.4072C65.65 25.5762 65.0029 24.6205 64.5279 23.5402C64.0692 22.4432 63.8398 21.2632 63.8398 20C63.8398 18.7368 64.0692 17.5651 64.5279 16.4848C65.0029 15.3878 65.65 14.4321 66.4691 13.6177C67.3046 12.7867 68.2712 12.1468 69.3687 11.6981C70.4663 11.2327 71.654 11 72.9318 11C74.2096 11 75.3973 11.2327 76.4949 11.6981C77.6089 12.1468 78.5754 12.7867 79.3945 13.6177C80.23 14.4321 80.8771 15.3878 81.3358 16.4848C81.7945 17.5651 82.0238 18.7368 82.0238 20C82.0238 21.2632 81.7945 22.4432 81.3358 23.5402C80.8771 24.6205 80.23 25.5762 79.3945 26.4072C78.5754 27.2216 77.6089 27.8615 76.4949 28.3269C75.3973 28.7756 74.2096 29 72.9318 29ZM72.9318 25.6842C73.7182 25.6842 74.439 25.5429 75.0942 25.2604C75.7495 24.9612 76.3229 24.5623 76.8144 24.0637C77.3058 23.5485 77.6908 22.9418 77.9693 22.2438C78.2478 21.5457 78.387 20.7978 78.387 20C78.387 19.1856 78.2478 18.4377 77.9693 17.7562C77.6908 17.0582 77.3058 16.4598 76.8144 15.9612C76.3229 15.446 75.7495 15.0471 75.0942 14.7645C74.439 14.4654 73.7182 14.3158 72.9318 14.3158C72.1619 14.3158 71.4493 14.4654 70.794 14.7645C70.1387 15.0471 69.5653 15.446 69.0739 15.9612C68.5824 16.4598 68.1974 17.0582 67.9189 17.7562C67.6404 18.4377 67.5012 19.1773 67.5012 19.9751C67.5012 20.7895 67.6404 21.5457 67.9189 22.2438C68.1974 22.9418 68.5824 23.5485 69.0739 24.0637C69.5653 24.5623 70.1387 24.9612 70.794 25.2604C71.4493 25.5429 72.1619 25.6842 72.9318 25.6842Z" fill="white"/>
<path d="M92.9705 28.9751C91.6927 28.9751 90.4968 28.7507 89.3828 28.3019C88.2689 27.8366 87.2941 27.1967 86.4587 26.3823C85.6396 25.5679 84.9925 24.6205 84.5174 23.5402C84.0587 22.4432 83.8294 21.2632 83.8294 20C83.8294 18.7202 84.0587 17.5402 84.5174 16.4598C84.9925 15.3629 85.6478 14.4072 86.4832 13.5928C87.3187 12.7784 88.2852 12.1468 89.3828 11.6981C90.4968 11.2327 91.6927 11 92.9705 11C93.9206 11 94.838 11.133 95.7227 11.3989C96.6073 11.6648 97.4264 12.0388 98.18 12.5208C98.9499 13.0028 99.6052 13.5845 100.146 14.2659L97.7376 16.6842C97.1151 15.903 96.3943 15.313 95.5752 14.9141C94.7725 14.5152 93.9043 14.3158 92.9705 14.3158C92.2005 14.3158 91.4797 14.4654 90.8081 14.7645C90.1364 15.0471 89.5549 15.446 89.0634 15.9612C88.5719 16.4598 88.187 17.0582 87.9085 17.7562C87.63 18.4377 87.4907 19.1856 87.4907 20C87.4907 20.7978 87.63 21.5457 87.9085 22.2438C88.187 22.9252 88.5801 23.5235 89.088 24.0388C89.5958 24.5374 90.1856 24.928 90.8572 25.2105C91.5453 25.4931 92.2906 25.6343 93.0934 25.6343C93.9944 25.6343 94.838 25.4432 95.6244 25.0609C96.4107 24.6787 97.1069 24.1302 97.7131 23.4155L100.048 25.759C99.5069 26.4238 98.8598 26.9972 98.1062 27.4792C97.3527 27.9612 96.5336 28.3352 95.6489 28.6011C94.7807 28.8504 93.8879 28.9751 92.9705 28.9751Z" fill="white"/>
<path d="M102.131 28.7258V11.2742H105.694V18.3047H113.606V11.2742H117.169V28.7258H113.606V21.5706H105.694V28.7258H102.131Z" fill="white"/>
<path d="M118.65 28.7258L125.727 11.2742H129.831L136.834 28.7258H132.976L131.231 24.1385H124.13L122.361 28.7258H118.65ZM125.236 21.2465H130.15L127.693 14.8144L125.236 21.2465Z" fill="white"/>
<path d="M81.9773 37L84.2813 31.4H85.6173L87.8973 37H86.6413L86.0733 35.528H83.7613L83.1853 37H81.9773ZM84.1213 34.6H85.7213L84.9213 32.536L84.1213 34.6ZM91.3383 37.08C90.9276 37.08 90.557 36.9867 90.2263 36.8C89.8956 36.608 89.6343 36.3493 89.4423 36.024C89.2503 35.6933 89.1543 35.3253 89.1543 34.92C89.1543 34.5093 89.2503 34.1413 89.4423 33.816C89.6343 33.4907 89.8956 33.232 90.2263 33.04C90.557 32.848 90.9276 32.752 91.3383 32.752C91.669 32.752 91.9836 32.816 92.2823 32.944C92.5863 33.072 92.8476 33.256 93.0663 33.496L92.3943 34.208C92.2396 34.0373 92.077 33.912 91.9063 33.832C91.741 33.7467 91.5596 33.704 91.3623 33.704C91.149 33.704 90.957 33.7573 90.7863 33.864C90.621 33.9707 90.4876 34.1147 90.3863 34.296C90.2903 34.4773 90.2423 34.6853 90.2423 34.92C90.2423 35.144 90.2903 35.3493 90.3863 35.536C90.4876 35.7173 90.6263 35.8613 90.8023 35.968C90.9783 36.0693 91.173 36.12 91.3863 36.12C91.573 36.12 91.7463 36.0827 91.9063 36.008C92.0716 35.928 92.229 35.8107 92.3783 35.656L93.0343 36.344C92.821 36.5733 92.565 36.7547 92.2663 36.888C91.9676 37.016 91.6583 37.08 91.3383 37.08ZM96.7589 37.08C96.3483 37.08 95.9776 36.9867 95.6469 36.8C95.3163 36.608 95.0549 36.3493 94.8629 36.024C94.6709 35.6933 94.5749 35.3253 94.5749 34.92C94.5749 34.5093 94.6709 34.1413 94.8629 33.816C95.0549 33.4907 95.3163 33.232 95.6469 33.04C95.9776 32.848 96.3483 32.752 96.7589 32.752C97.0896 32.752 97.4043 32.816 97.7029 32.944C98.0069 33.072 98.2683 33.256 98.4869 33.496L97.8149 34.208C97.6603 34.0373 97.4976 33.912 97.3269 33.832C97.1616 33.7467 96.9803 33.704 96.7829 33.704C96.5696 33.704 96.3776 33.7573 96.2069 33.864C96.0416 33.9707 95.9083 34.1147 95.8069 34.296C95.7109 34.4773 95.6629 34.6853 95.6629 34.92C95.6629 35.144 95.7109 35.3493 95.8069 35.536C95.9083 35.7173 96.0469 35.8613 96.2229 35.968C96.3989 36.0693 96.5936 36.12 96.8069 36.12C96.9936 36.12 97.1669 36.0827 97.3269 36.008C97.4923 35.928 97.6496 35.8107 97.7989 35.656L98.4549 36.344C98.2416 36.5733 97.9856 36.7547 97.6869 36.888C97.3883 37.016 97.0789 37.08 96.7589 37.08ZM102.22 37.08C101.804 37.08 101.428 36.984 101.092 36.792C100.756 36.6 100.489 36.3413 100.292 36.016C100.094 35.6907 99.9955 35.3253 99.9955 34.92C99.9955 34.5147 100.092 34.1493 100.284 33.824C100.481 33.4933 100.748 33.232 101.084 33.04C101.425 32.848 101.804 32.752 102.22 32.752C102.636 32.752 103.012 32.848 103.348 33.04C103.689 33.232 103.956 33.4933 104.148 33.824C104.345 34.1493 104.444 34.5147 104.444 34.92C104.444 35.3253 104.345 35.6907 104.148 36.016C103.956 36.3413 103.692 36.6 103.356 36.792C103.02 36.984 102.641 37.08 102.22 37.08ZM102.22 36.128C102.438 36.128 102.633 36.0747 102.804 35.968C102.98 35.8613 103.118 35.7173 103.22 35.536C103.326 35.3493 103.38 35.144 103.38 34.92C103.38 34.6907 103.326 34.4853 103.22 34.304C103.118 34.1227 102.98 33.9787 102.804 33.872C102.633 33.76 102.438 33.704 102.22 33.704C102.006 33.704 101.812 33.76 101.636 33.872C101.46 33.9787 101.321 34.1227 101.22 34.304C101.118 34.4853 101.068 34.6907 101.068 34.92C101.068 35.144 101.118 35.3493 101.22 35.536C101.321 35.7173 101.46 35.8613 101.636 35.968C101.812 36.0747 102.006 36.128 102.22 36.128ZM108.013 37.08C107.693 37.08 107.408 37.0107 107.157 36.872C106.912 36.728 106.717 36.5307 106.573 36.28C106.435 36.0293 106.365 35.7413 106.365 35.416V32.832H107.461V35.256C107.461 35.5227 107.539 35.736 107.693 35.896C107.853 36.056 108.067 36.136 108.333 36.136C108.515 36.136 108.677 36.1013 108.821 36.032C108.971 35.9573 109.093 35.8533 109.189 35.72V32.832H110.285V37H109.189V36.664C108.869 36.9413 108.477 37.08 108.013 37.08ZM112.419 37V32.832H113.515V33.176C113.83 32.8933 114.219 32.752 114.683 32.752C115.009 32.752 115.294 32.824 115.539 32.968C115.79 33.1067 115.985 33.3013 116.123 33.552C116.262 33.7973 116.331 34.0853 116.331 34.416V37H115.235V34.576C115.235 34.304 115.158 34.0907 115.003 33.936C114.849 33.776 114.638 33.696 114.371 33.696C114.185 33.696 114.019 33.7333 113.875 33.808C113.731 33.8773 113.611 33.9787 113.515 34.112V37H112.419ZM120.3 37.064C119.836 37.064 119.484 36.96 119.244 36.752C119.01 36.5387 118.892 36.2293 118.892 35.824V33.744H118.036V32.832H118.892V31.768L119.988 31.52V32.832H121.18V33.744H119.988V35.6C119.988 35.792 120.031 35.9307 120.116 36.016C120.202 36.096 120.351 36.136 120.564 36.136C120.671 36.136 120.767 36.1307 120.852 36.12C120.943 36.104 121.042 36.0773 121.148 36.04V36.944C121.036 36.9813 120.895 37.0107 120.724 37.032C120.559 37.0533 120.418 37.064 120.3 37.064ZM122.995 37V32.832H124.091V37H122.995ZM123.539 32.336C123.368 32.336 123.222 32.2747 123.099 32.152C122.976 32.0293 122.915 31.8827 122.915 31.712C122.915 31.536 122.976 31.3893 123.099 31.272C123.222 31.1493 123.368 31.088 123.539 31.088C123.715 31.088 123.862 31.1493 123.979 31.272C124.102 31.3893 124.163 31.536 124.163 31.712C124.163 31.8827 124.102 32.0293 123.979 32.152C123.862 32.2747 123.715 32.336 123.539 32.336ZM126.228 37V32.832H127.324V33.176C127.639 32.8933 128.028 32.752 128.492 32.752C128.818 32.752 129.103 32.824 129.348 32.968C129.599 33.1067 129.794 33.3013 129.932 33.552C130.071 33.7973 130.14 34.0853 130.14 34.416V37H129.044V34.576C129.044 34.304 128.967 34.0907 128.812 33.936C128.658 33.776 128.447 33.696 128.18 33.696C127.994 33.696 127.828 33.7333 127.684 33.808C127.54 33.8773 127.42 33.9787 127.324 34.112V37H126.228ZM134.346 38.712C134.026 38.712 133.717 38.6773 133.418 38.608C133.12 38.544 132.85 38.4507 132.61 38.328L132.994 37.48C133.224 37.592 133.448 37.6747 133.666 37.728C133.885 37.7813 134.104 37.808 134.322 37.808C134.648 37.808 134.893 37.7387 135.058 37.6C135.229 37.4613 135.314 37.2533 135.314 36.976V36.648C134.973 36.8987 134.592 37.024 134.17 37.024C133.776 37.024 133.418 36.9307 133.098 36.744C132.784 36.552 132.53 36.2933 132.338 35.968C132.152 35.6427 132.058 35.2827 132.058 34.888C132.058 34.4933 132.152 34.136 132.338 33.816C132.53 33.496 132.789 33.2427 133.114 33.056C133.44 32.864 133.802 32.768 134.202 32.768C134.405 32.768 134.602 32.7973 134.794 32.856C134.986 32.9147 135.165 32.9973 135.33 33.104V32.832H136.41V36.992C136.41 37.5413 136.232 37.9653 135.874 38.264C135.522 38.5627 135.013 38.712 134.346 38.712ZM134.338 36.096C134.541 36.096 134.725 36.064 134.89 36C135.056 35.9307 135.197 35.8347 135.314 35.712V34.08C135.197 33.9627 135.053 33.872 134.882 33.808C134.717 33.7387 134.538 33.704 134.346 33.704C134.117 33.704 133.912 33.7573 133.73 33.864C133.549 33.9653 133.405 34.1067 133.298 34.288C133.192 34.464 133.138 34.664 133.138 34.888C133.138 35.1173 133.189 35.3227 133.29 35.504C133.397 35.6853 133.541 35.8293 133.722 35.936C133.909 36.0427 134.114 36.096 134.338 36.096Z" fill="#E49B0F"/>
<path d="M4.48195 55.07C4.02195 55.07 3.60862 54.99 3.24195 54.83C2.88195 54.6633 2.59862 54.4367 2.39195 54.15C2.18529 53.8567 2.07862 53.52 2.07195 53.14H3.04195C3.07529 53.4667 3.20862 53.7433 3.44195 53.97C3.68195 54.19 4.02862 54.3 4.48195 54.3C4.91529 54.3 5.25529 54.1933 5.50195 53.98C5.75529 53.76 5.88195 53.48 5.88195 53.14C5.88195 52.8733 5.80862 52.6567 5.66195 52.49C5.51529 52.3233 5.33195 52.1967 5.11195 52.11C4.89195 52.0233 4.59529 51.93 4.22195 51.83C3.76195 51.71 3.39195 51.59 3.11195 51.47C2.83862 51.35 2.60195 51.1633 2.40195 50.91C2.20862 50.65 2.11195 50.3033 2.11195 49.87C2.11195 49.49 2.20862 49.1533 2.40195 48.86C2.59529 48.5667 2.86529 48.34 3.21195 48.18C3.56529 48.02 3.96862 47.94 4.42195 47.94C5.07529 47.94 5.60862 48.1033 6.02195 48.43C6.44195 48.7567 6.67862 49.19 6.73195 49.73H5.73195C5.69862 49.4633 5.55862 49.23 5.31195 49.03C5.06529 48.8233 4.73862 48.72 4.33195 48.72C3.95195 48.72 3.64195 48.82 3.40195 49.02C3.16195 49.2133 3.04195 49.4867 3.04195 49.84C3.04195 50.0933 3.11195 50.3 3.25195 50.46C3.39862 50.62 3.57529 50.7433 3.78195 50.83C3.99529 50.91 4.29195 51.0033 4.67195 51.11C5.13195 51.2367 5.50195 51.3633 5.78195 51.49C6.06195 51.61 6.30195 51.8 6.50195 52.06C6.70195 52.3133 6.80195 52.66 6.80195 53.1C6.80195 53.44 6.71195 53.76 6.53195 54.06C6.35195 54.36 6.08529 54.6033 5.73195 54.79C5.37862 54.9767 4.96195 55.07 4.48195 55.07ZM8.61109 48.63C8.43776 48.63 8.29109 48.57 8.17109 48.45C8.05109 48.33 7.99109 48.1833 7.99109 48.01C7.99109 47.8367 8.05109 47.69 8.17109 47.57C8.29109 47.45 8.43776 47.39 8.61109 47.39C8.77776 47.39 8.91776 47.45 9.03109 47.57C9.15109 47.69 9.21109 47.8367 9.21109 48.01C9.21109 48.1833 9.15109 48.33 9.03109 48.45C8.91776 48.57 8.77776 48.63 8.61109 48.63ZM9.05109 49.52V55H8.14109V49.52H9.05109ZM17.192 49.42C17.6187 49.42 17.9987 49.51 18.332 49.69C18.6654 49.8633 18.9287 50.1267 19.122 50.48C19.3154 50.8333 19.412 51.2633 19.412 51.77V55H18.512V51.9C18.512 51.3533 18.3754 50.9367 18.102 50.65C17.8354 50.3567 17.472 50.21 17.012 50.21C16.5387 50.21 16.162 50.3633 15.882 50.67C15.602 50.97 15.462 51.4067 15.462 51.98V55H14.562V51.9C14.562 51.3533 14.4254 50.9367 14.152 50.65C13.8854 50.3567 13.522 50.21 13.062 50.21C12.5887 50.21 12.212 50.3633 11.932 50.67C11.652 50.97 11.512 51.4067 11.512 51.98V55H10.602V49.52H11.512V50.31C11.692 50.0233 11.932 49.8033 12.232 49.65C12.5387 49.4967 12.8754 49.42 13.242 49.42C13.702 49.42 14.1087 49.5233 14.462 49.73C14.8154 49.9367 15.0787 50.24 15.252 50.64C15.4054 50.2533 15.6587 49.9533 16.012 49.74C16.3654 49.5267 16.7587 49.42 17.192 49.42ZM21.8148 50.53C21.9948 50.2167 22.2614 49.9567 22.6148 49.75C22.9748 49.5367 23.3914 49.43 23.8648 49.43C24.3514 49.43 24.7914 49.5467 25.1848 49.78C25.5848 50.0133 25.8981 50.3433 26.1248 50.77C26.3514 51.19 26.4648 51.68 26.4648 52.24C26.4648 52.7933 26.3514 53.2867 26.1248 53.72C25.8981 54.1533 25.5848 54.49 25.1848 54.73C24.7914 54.97 24.3514 55.09 23.8648 55.09C23.3981 55.09 22.9848 54.9867 22.6248 54.78C22.2714 54.5667 22.0014 54.3033 21.8148 53.99V57.6H20.9048V49.52H21.8148V50.53ZM25.5348 52.24C25.5348 51.8267 25.4514 51.4667 25.2848 51.16C25.1181 50.8533 24.8914 50.62 24.6048 50.46C24.3248 50.3 24.0148 50.22 23.6748 50.22C23.3414 50.22 23.0314 50.3033 22.7448 50.47C22.4648 50.63 22.2381 50.8667 22.0648 51.18C21.8981 51.4867 21.8148 51.8433 21.8148 52.25C21.8148 52.6633 21.8981 53.0267 22.0648 53.34C22.2381 53.6467 22.4648 53.8833 22.7448 54.05C23.0314 54.21 23.3414 54.29 23.6748 54.29C24.0148 54.29 24.3248 54.21 24.6048 54.05C24.8914 53.8833 25.1181 53.6467 25.2848 53.34C25.4514 53.0267 25.5348 52.66 25.5348 52.24ZM28.5726 47.6V55H27.6626V47.6H28.5726ZM35.1235 52.05C35.1235 52.2233 35.1135 52.4067 35.0935 52.6H30.7135C30.7468 53.14 30.9302 53.5633 31.2635 53.87C31.6035 54.17 32.0135 54.32 32.4935 54.32C32.8868 54.32 33.2135 54.23 33.4735 54.05C33.7402 53.8633 33.9268 53.6167 34.0335 53.31H35.0135C34.8668 53.8367 34.5735 54.2667 34.1335 54.6C33.6935 54.9267 33.1468 55.09 32.4935 55.09C31.9735 55.09 31.5068 54.9733 31.0935 54.74C30.6868 54.5067 30.3668 54.1767 30.1335 53.75C29.9002 53.3167 29.7835 52.8167 29.7835 52.25C29.7835 51.6833 29.8968 51.1867 30.1235 50.76C30.3502 50.3333 30.6668 50.0067 31.0735 49.78C31.4868 49.5467 31.9602 49.43 32.4935 49.43C33.0135 49.43 33.4735 49.5433 33.8735 49.77C34.2735 49.9967 34.5802 50.31 34.7935 50.71C35.0135 51.1033 35.1235 51.55 35.1235 52.05ZM34.1835 51.86C34.1835 51.5133 34.1068 51.2167 33.9535 50.97C33.8002 50.7167 33.5902 50.5267 33.3235 50.4C33.0635 50.2667 32.7735 50.2 32.4535 50.2C31.9935 50.2 31.6002 50.3467 31.2735 50.64C30.9535 50.9333 30.7702 51.34 30.7235 51.86H34.1835ZM36.6147 55.06C36.4414 55.06 36.2947 55 36.1747 54.88C36.0547 54.76 35.9947 54.6133 35.9947 54.44C35.9947 54.2667 36.0547 54.12 36.1747 54C36.2947 53.88 36.4414 53.82 36.6147 53.82C36.7814 53.82 36.9214 53.88 37.0347 54C37.1547 54.12 37.2147 54.2667 37.2147 54.44C37.2147 54.6133 37.1547 54.76 37.0347 54.88C36.9214 55 36.7814 55.06 36.6147 55.06ZM43.3003 55.07C42.8403 55.07 42.427 54.99 42.0603 54.83C41.7003 54.6633 41.417 54.4367 41.2103 54.15C41.0036 53.8567 40.897 53.52 40.8903 53.14H41.8603C41.8936 53.4667 42.027 53.7433 42.2603 53.97C42.5003 54.19 42.847 54.3 43.3003 54.3C43.7336 54.3 44.0736 54.1933 44.3203 53.98C44.5736 53.76 44.7003 53.48 44.7003 53.14C44.7003 52.8733 44.627 52.6567 44.4803 52.49C44.3336 52.3233 44.1503 52.1967 43.9303 52.11C43.7103 52.0233 43.4136 51.93 43.0403 51.83C42.5803 51.71 42.2103 51.59 41.9303 51.47C41.657 51.35 41.4203 51.1633 41.2203 50.91C41.027 50.65 40.9303 50.3033 40.9303 49.87C40.9303 49.49 41.027 49.1533 41.2203 48.86C41.4136 48.5667 41.6836 48.34 42.0303 48.18C42.3836 48.02 42.787 47.94 43.2403 47.94C43.8936 47.94 44.427 48.1033 44.8403 48.43C45.2603 48.7567 45.497 49.19 45.5503 49.73H44.5503C44.517 49.4633 44.377 49.23 44.1303 49.03C43.8836 48.8233 43.557 48.72 43.1503 48.72C42.7703 48.72 42.4603 48.82 42.2203 49.02C41.9803 49.2133 41.8603 49.4867 41.8603 49.84C41.8603 50.0933 41.9303 50.3 42.0703 50.46C42.217 50.62 42.3936 50.7433 42.6003 50.83C42.8136 50.91 43.1103 51.0033 43.4903 51.11C43.9503 51.2367 44.3203 51.3633 44.6003 51.49C44.8803 51.61 45.1203 51.8 45.3203 52.06C45.5203 52.3133 45.6203 52.66 45.6203 53.1C45.6203 53.44 45.5303 53.76 45.3503 54.06C45.1703 54.36 44.9036 54.6033 44.5503 54.79C44.197 54.9767 43.7803 55.07 43.3003 55.07ZM51.9595 52.05C51.9595 52.2233 51.9495 52.4067 51.9295 52.6H47.5495C47.5828 53.14 47.7661 53.5633 48.0995 53.87C48.4395 54.17 48.8495 54.32 49.3295 54.32C49.7228 54.32 50.0495 54.23 50.3095 54.05C50.5761 53.8633 50.7628 53.6167 50.8695 53.31H51.8495C51.7028 53.8367 51.4095 54.2667 50.9695 54.6C50.5295 54.9267 49.9828 55.09 49.3295 55.09C48.8095 55.09 48.3428 54.9733 47.9295 54.74C47.5228 54.5067 47.2028 54.1767 46.9695 53.75C46.7361 53.3167 46.6195 52.8167 46.6195 52.25C46.6195 51.6833 46.7328 51.1867 46.9595 50.76C47.1861 50.3333 47.5028 50.0067 47.9095 49.78C48.3228 49.5467 48.7961 49.43 49.3295 49.43C49.8495 49.43 50.3095 49.5433 50.7095 49.77C51.1095 49.9967 51.4161 50.31 51.6295 50.71C51.8495 51.1033 51.9595 51.55 51.9595 52.05ZM51.0195 51.86C51.0195 51.5133 50.9428 51.2167 50.7895 50.97C50.6361 50.7167 50.4261 50.5267 50.1595 50.4C49.8995 50.2667 49.6095 50.2 49.2895 50.2C48.8295 50.2 48.4361 50.3467 48.1095 50.64C47.7895 50.9333 47.6061 51.34 47.5595 51.86H51.0195ZM52.8206 52.25C52.8206 51.6833 52.934 51.19 53.1606 50.77C53.3873 50.3433 53.7006 50.0133 54.1006 49.78C54.5073 49.5467 54.9706 49.43 55.4906 49.43C56.164 49.43 56.7173 49.5933 57.1506 49.92C57.5906 50.2467 57.8806 50.7 58.0206 51.28H57.0406C56.9473 50.9467 56.764 50.6833 56.4906 50.49C56.224 50.2967 55.8906 50.2 55.4906 50.2C54.9706 50.2 54.5506 50.38 54.2306 50.74C53.9106 51.0933 53.7506 51.5967 53.7506 52.25C53.7506 52.91 53.9106 53.42 54.2306 53.78C54.5506 54.14 54.9706 54.32 55.4906 54.32C55.8906 54.32 56.224 54.2267 56.4906 54.04C56.7573 53.8533 56.9406 53.5867 57.0406 53.24H58.0206C57.874 53.8 57.5806 54.25 57.1406 54.59C56.7006 54.9233 56.1506 55.09 55.4906 55.09C54.9706 55.09 54.5073 54.9733 54.1006 54.74C53.7006 54.5067 53.3873 54.1767 53.1606 53.75C52.934 53.3233 52.8206 52.8233 52.8206 52.25ZM64.0948 49.52V55H63.1848V54.19C63.0115 54.47 62.7682 54.69 62.4548 54.85C62.1482 55.0033 61.8082 55.08 61.4348 55.08C61.0082 55.08 60.6248 54.9933 60.2848 54.82C59.9448 54.64 59.6748 54.3733 59.4748 54.02C59.2815 53.6667 59.1848 53.2367 59.1848 52.73V49.52H60.0848V52.61C60.0848 53.15 60.2215 53.5667 60.4948 53.86C60.7682 54.1467 61.1415 54.29 61.6148 54.29C62.1015 54.29 62.4848 54.14 62.7648 53.84C63.0448 53.54 63.1848 53.1033 63.1848 52.53V49.52H64.0948ZM66.5413 50.41C66.7013 50.0967 66.928 49.8533 67.2213 49.68C67.5213 49.5067 67.8847 49.42 68.3113 49.42V50.36H68.0713C67.0513 50.36 66.5413 50.9133 66.5413 52.02V55H65.6313V49.52H66.5413V50.41ZM74.3618 52.05C74.3618 52.2233 74.3518 52.4067 74.3318 52.6H69.9518C69.9851 53.14 70.1685 53.5633 70.5018 53.87C70.8418 54.17 71.2518 54.32 71.7318 54.32C72.1251 54.32 72.4518 54.23 72.7118 54.05C72.9785 53.8633 73.1651 53.6167 73.2718 53.31H74.2518C74.1051 53.8367 73.8118 54.2667 73.3718 54.6C72.9318 54.9267 72.3851 55.09 71.7318 55.09C71.2118 55.09 70.7451 54.9733 70.3318 54.74C69.9251 54.5067 69.6051 54.1767 69.3718 53.75C69.1385 53.3167 69.0218 52.8167 69.0218 52.25C69.0218 51.6833 69.1351 51.1867 69.3618 50.76C69.5885 50.3333 69.9051 50.0067 70.3118 49.78C70.7251 49.5467 71.1985 49.43 71.7318 49.43C72.2518 49.43 72.7118 49.5433 73.1118 49.77C73.5118 49.9967 73.8185 50.31 74.0318 50.71C74.2518 51.1033 74.3618 51.55 74.3618 52.05ZM73.4218 51.86C73.4218 51.5133 73.3451 51.2167 73.1918 50.97C73.0385 50.7167 72.8285 50.5267 72.5618 50.4C72.3018 50.2667 72.0118 50.2 71.6918 50.2C71.2318 50.2 70.8385 50.3467 70.5118 50.64C70.1918 50.9333 70.0085 51.34 69.9618 51.86H73.4218ZM75.853 55.06C75.6796 55.06 75.533 55 75.413 54.88C75.293 54.76 75.233 54.6133 75.233 54.44C75.233 54.2667 75.293 54.12 75.413 54C75.533 53.88 75.6796 53.82 75.853 53.82C76.0196 53.82 76.1596 53.88 76.273 54C76.393 54.12 76.453 54.2667 76.453 54.44C76.453 54.6133 76.393 54.76 76.273 54.88C76.1596 55 76.0196 55.06 75.853 55.06ZM84.6186 48.03V48.77H82.7186V55H81.8086V48.77H79.8986V48.03H84.6186ZM85.3988 52.24C85.3988 51.68 85.5121 51.19 85.7388 50.77C85.9654 50.3433 86.2754 50.0133 86.6688 49.78C87.0688 49.5467 87.5121 49.43 87.9988 49.43C88.4788 49.43 88.8954 49.5333 89.2488 49.74C89.6021 49.9467 89.8654 50.2067 90.0388 50.52V49.52H90.9588V55H90.0388V53.98C89.8588 54.3 89.5888 54.5667 89.2288 54.78C88.8754 54.9867 88.4621 55.09 87.9888 55.09C87.5021 55.09 87.0621 54.97 86.6688 54.73C86.2754 54.49 85.9654 54.1533 85.7388 53.72C85.5121 53.2867 85.3988 52.7933 85.3988 52.24ZM90.0388 52.25C90.0388 51.8367 89.9554 51.4767 89.7888 51.17C89.6221 50.8633 89.3954 50.63 89.1088 50.47C88.8288 50.3033 88.5188 50.22 88.1788 50.22C87.8388 50.22 87.5288 50.3 87.2488 50.46C86.9688 50.62 86.7454 50.8533 86.5788 51.16C86.4121 51.4667 86.3288 51.8267 86.3288 52.24C86.3288 52.66 86.4121 53.0267 86.5788 53.34C86.7454 53.6467 86.9688 53.8833 87.2488 54.05C87.5288 54.21 87.8388 54.29 88.1788 54.29C88.5188 54.29 88.8288 54.21 89.1088 54.05C89.3954 53.8833 89.6221 53.6467 89.7888 53.34C89.9554 53.0267 90.0388 52.6633 90.0388 52.25ZM92.9666 48.63C92.7932 48.63 92.6466 48.57 92.5266 48.45C92.4066 48.33 92.3466 48.1833 92.3466 48.01C92.3466 47.8367 92.4066 47.69 92.5266 47.57C92.6466 47.45 92.7932 47.39 92.9666 47.39C93.1332 47.39 93.2732 47.45 93.3866 47.57C93.5066 47.69 93.5666 47.8367 93.5666 48.01C93.5666 48.1833 93.5066 48.33 93.3866 48.45C93.2732 48.57 93.1332 48.63 92.9666 48.63ZM93.4066 49.52V55H92.4966V49.52H93.4066ZM95.8675 47.6V55H94.9575V47.6H95.8675ZM99.8084 55.09C99.2951 55.09 98.8284 54.9733 98.4084 54.74C97.9951 54.5067 97.6684 54.1767 97.4284 53.75C97.1951 53.3167 97.0784 52.8167 97.0784 52.25C97.0784 51.69 97.1984 51.1967 97.4384 50.77C97.6851 50.3367 98.0184 50.0067 98.4384 49.78C98.8584 49.5467 99.3284 49.43 99.8484 49.43C100.368 49.43 100.838 49.5467 101.258 49.78C101.678 50.0067 102.008 50.3333 102.248 50.76C102.495 51.1867 102.618 51.6833 102.618 52.25C102.618 52.8167 102.492 53.3167 102.238 53.75C101.992 54.1767 101.655 54.5067 101.228 54.74C100.802 54.9733 100.328 55.09 99.8084 55.09ZM99.8084 54.29C100.135 54.29 100.442 54.2133 100.728 54.06C101.015 53.9067 101.245 53.6767 101.418 53.37C101.598 53.0633 101.688 52.69 101.688 52.25C101.688 51.81 101.602 51.4367 101.428 51.13C101.255 50.8233 101.028 50.5967 100.748 50.45C100.468 50.2967 100.165 50.22 99.8384 50.22C99.5051 50.22 99.1984 50.2967 98.9184 50.45C98.6451 50.5967 98.4251 50.8233 98.2584 51.13C98.0918 51.4367 98.0084 51.81 98.0084 52.25C98.0084 52.6967 98.0884 53.0733 98.2484 53.38C98.4151 53.6867 98.6351 53.9167 98.9084 54.07C99.1818 54.2167 99.4818 54.29 99.8084 54.29ZM104.725 50.41C104.885 50.0967 105.112 49.8533 105.405 49.68C105.705 49.5067 106.068 49.42 106.495 49.42V50.36H106.255C105.235 50.36 104.725 50.9133 104.725 52.02V55H103.815V49.52H104.725V50.41ZM112.545 52.05C112.545 52.2233 112.535 52.4067 112.515 52.6H108.135C108.169 53.14 108.352 53.5633 108.685 53.87C109.025 54.17 109.435 54.32 109.915 54.32C110.309 54.32 110.635 54.23 110.895 54.05C111.162 53.8633 111.349 53.6167 111.455 53.31H112.435C112.289 53.8367 111.995 54.2667 111.555 54.6C111.115 54.9267 110.569 55.09 109.915 55.09C109.395 55.09 108.929 54.9733 108.515 54.74C108.109 54.5067 107.789 54.1767 107.555 53.75C107.322 53.3167 107.205 52.8167 107.205 52.25C107.205 51.6833 107.319 51.1867 107.545 50.76C107.772 50.3333 108.089 50.0067 108.495 49.78C108.909 49.5467 109.382 49.43 109.915 49.43C110.435 49.43 110.895 49.5433 111.295 49.77C111.695 49.9967 112.002 50.31 112.215 50.71C112.435 51.1033 112.545 51.55 112.545 52.05ZM111.605 51.86C111.605 51.5133 111.529 51.2167 111.375 50.97C111.222 50.7167 111.012 50.5267 110.745 50.4C110.485 50.2667 110.195 50.2 109.875 50.2C109.415 50.2 109.022 50.3467 108.695 50.64C108.375 50.9333 108.192 51.34 108.145 51.86H111.605ZM113.407 52.24C113.407 51.68 113.52 51.19 113.747 50.77C113.973 50.3433 114.283 50.0133 114.677 49.78C115.077 49.5467 115.523 49.43 116.017 49.43C116.443 49.43 116.84 49.53 117.207 49.73C117.573 49.9233 117.853 50.18 118.047 50.5V47.6H118.967V55H118.047V53.97C117.867 54.2967 117.6 54.5667 117.247 54.78C116.893 54.9867 116.48 55.09 116.007 55.09C115.52 55.09 115.077 54.97 114.677 54.73C114.283 54.49 113.973 54.1533 113.747 53.72C113.52 53.2867 113.407 52.7933 113.407 52.24ZM118.047 52.25C118.047 51.8367 117.963 51.4767 117.797 51.17C117.63 50.8633 117.403 50.63 117.117 50.47C116.837 50.3033 116.527 50.22 116.187 50.22C115.847 50.22 115.537 50.3 115.257 50.46C114.977 50.62 114.753 50.8533 114.587 51.16C114.42 51.4667 114.337 51.8267 114.337 52.24C114.337 52.66 114.42 53.0267 114.587 53.34C114.753 53.6467 114.977 53.8833 115.257 54.05C115.537 54.21 115.847 54.29 116.187 54.29C116.527 54.29 116.837 54.21 117.117 54.05C117.403 53.8833 117.63 53.6467 117.797 53.34C117.963 53.0267 118.047 52.6633 118.047 52.25ZM120.794 55.06C120.621 55.06 120.474 55 120.354 54.88C120.234 54.76 120.174 54.6133 120.174 54.44C120.174 54.2667 120.234 54.12 120.354 54C120.474 53.88 120.621 53.82 120.794 53.82C120.961 53.82 121.101 53.88 121.214 54C121.334 54.12 121.394 54.2667 121.394 54.44C121.394 54.6133 121.334 54.76 121.214 54.88C121.101 55 120.961 55.06 120.794 55.06Z" fill="white"/>
<defs>
<clipPath id="clip0_462_8030">
<rect width="32" height="40" fill="white" transform="translate(0.833984)"/>
</clipPath>
</defs>
</svg>
