<svg width="19" height="19" viewBox="0 0 19 19" fill="none" xmlns="http://www.w3.org/2000/svg">
<path d="M13.584 14.3223H10.584L7.24648 16.5423C6.75148 16.8723 6.08398 16.5198 6.08398 15.9198V14.3223C3.83398 14.3223 2.33398 12.8223 2.33398 10.5723V6.07227C2.33398 3.82227 3.83398 2.32227 6.08398 2.32227H13.584C15.834 2.32227 17.334 3.82227 17.334 6.07227V10.5723C17.334 12.8223 15.834 14.3223 13.584 14.3223Z" stroke="#fff" stroke-width="1.125" stroke-miterlimit="10" stroke-linecap="round" stroke-linejoin="round"/>
<path d="M9.83385 9.02002V8.86255C9.83385 8.35255 10.1489 8.08254 10.4639 7.86504C10.7714 7.65504 11.0788 7.38505 11.0788 6.89005C11.0788 6.20005 10.5238 5.64502 9.83385 5.64502C9.14385 5.64502 8.58887 6.20005 8.58887 6.89005" stroke="#fff" stroke-width="1.125" stroke-linecap="round" stroke-linejoin="round"/>
<path d="M9.83061 10.8125H9.83736" stroke="#fff" stroke-width="1.125" stroke-linecap="round" stroke-linejoin="round"/>
</svg>
