<svg width="502" height="339" viewBox="0 0 502 339" fill="none" xmlns="http://www.w3.org/2000/svg">
<g clip-path="url(#clip0_196_2936)">
<path d="M338.536 284.129C327.407 284.129 318.36 275.034 318.36 263.865C318.36 252.696 327.415 243.602 338.536 243.602H485.59V239.613H327.336C313.999 239.613 303.188 250.471 303.188 263.865C303.188 277.26 313.999 288.118 327.336 288.118H485.59V284.129H338.536Z" fill="#177245"/>
<path d="M327.336 284.129C316.207 284.129 307.16 275.034 307.16 263.865C307.16 252.696 316.215 243.602 327.336 243.602H481.618V284.137H327.336V284.129Z" fill="#F2F0EB"/>
<path d="M318.217 245.788L481.611 249.218V243.594H327.328C324.047 243.594 320.957 244.392 318.217 245.788Z" fill="#CFECEC"/>
<path d="M327.002 332.514C315.873 332.514 306.826 323.419 306.826 312.251C306.826 301.082 315.881 291.987 327.002 291.987H474.056V287.998H315.802C302.465 287.998 291.654 298.856 291.654 312.251C291.654 325.645 302.465 336.503 315.802 336.503H474.056V332.514H327.002Z" fill="#1C352D"/>
<path d="M315.802 332.514C304.673 332.514 295.626 323.419 295.626 312.25C295.626 301.081 304.681 291.987 315.802 291.987H470.085V332.522H315.802V332.514Z" fill="#F2F0EB"/>
<path d="M306.691 294.173L470.085 297.603V291.979H315.802C312.521 291.979 309.431 292.777 306.691 294.173Z" fill="#CFECEC"/>
<path d="M226.696 123.686C260.485 118.177 283.431 86.2011 277.946 52.2652C272.461 18.3293 240.623 -4.71564 206.834 0.792932C173.045 6.30151 150.1 38.2776 155.584 72.2135C161.069 106.149 192.907 129.194 226.696 123.686Z" fill="#177245"/>
<path d="M216.765 113.077C244.714 113.077 267.372 90.321 267.372 62.2503C267.372 34.1796 244.714 11.4238 216.765 11.4238C188.816 11.4238 166.158 34.1796 166.158 62.2503C166.158 90.321 188.816 113.077 216.765 113.077Z" fill="#F2F0EB"/>
<path d="M222.167 62.2104C222.167 65.234 219.728 67.6752 216.725 67.6752C213.723 67.6752 211.284 65.226 211.284 62.2104C211.284 59.1948 213.723 56.7456 216.725 56.7456C219.728 56.7456 222.167 59.1948 222.167 62.2104Z" fill="#284159"/>
<path d="M218.163 60.9422C217.694 60.2322 217.885 59.2589 218.6 58.7882L245.123 41.1334C245.83 40.6627 246.799 40.8541 247.267 41.5721C247.736 42.2822 247.545 43.2555 246.83 43.7261L220.308 61.381C219.601 61.8517 218.632 61.6602 218.163 60.9422Z" fill="#284159"/>
<path d="M220.308 63.8063C220.76 63.0804 221.714 62.857 222.436 63.3037L233.398 70.1487C234.121 70.6034 234.343 71.5607 233.899 72.2867C233.446 73.0127 232.493 73.2361 231.77 72.7893L220.808 65.9444C220.085 65.4897 219.863 64.5323 220.308 63.8063Z" fill="#284159"/>
<path d="M217.909 16.1709H215.621V24.4359H217.909V16.1709Z" fill="#83A9FF"/>
<path d="M217.909 100.073H215.621V108.338H217.909V100.073Z" fill="#83A9FF"/>
<path d="M262.645 61.1016H254.416V63.3992H262.645V61.1016Z" fill="#83A9FF"/>
<path d="M179.106 61.1016H170.876V63.3992H179.106V61.1016Z" fill="#83A9FF"/>
<path d="M363.724 141.351C364.033 174.434 381.993 192.089 411.574 190.55" stroke="#FFB692" stroke-width="9" stroke-miterlimit="10"/>
<path d="M394.782 195.201L408.063 198.36C411.829 199.062 415.459 196.565 416.158 192.775C416.857 188.994 414.37 185.348 410.597 184.646L397.316 181.487L394.782 195.193V195.201Z" fill="#1B7BBC"/>
<path d="M364.216 148.06C369.761 148.961 369.594 140.768 369.594 140.768L373.033 136.197C373.033 136.197 368.847 133.301 366.734 137.952C366.734 137.952 365.297 130.876 362.628 129.248C361.373 128.482 355.812 129.663 353.453 131.602C352.953 132.016 352.889 132.75 353.31 133.245C354.327 134.426 356.114 136.979 356.043 140.226C355.939 144.749 358.259 150.772 364.216 148.052V148.06Z" fill="#FFB692"/>
<path d="M366.726 137.952C366.726 137.952 362.588 138.527 362.024 143.377C362.024 143.377 363.263 139.197 366.79 138.271L366.726 137.952Z" fill="#177245"/>
<path d="M358.704 140.178C358.704 140.178 361.357 138.064 364.709 137.569C364.709 137.569 361.412 135.989 358.704 140.178Z" fill="#177245"/>
<path d="M359.728 139.404L359.927 139.212C359.927 139.212 358.02 133.771 353.993 131.203C353.914 131.258 353.834 131.306 353.763 131.362C355.177 132.487 358.378 135.375 359.728 139.404Z" fill="#177245"/>
<path d="M363.088 137.577H363.533C363.533 137.577 363.326 131.801 359.895 129.128C358.83 129.288 357.607 129.591 356.471 130.006C357.544 130.907 360.546 133.787 361.229 138.255L361.563 138.167C361.563 138.167 361.372 132.367 357.123 129.894L359.458 129.208C359.458 129.208 363.032 132.192 363.096 137.577H363.088Z" fill="#177245"/>
<path d="M1.84277 266.283C7.71287 310.144 47.8822 340.923 91.5544 335.019C85.6843 291.157 45.5151 260.379 1.84277 266.283Z" fill="#1C352D"/>
<path d="M49.9552 230.502C32.194 271.005 50.4794 318.297 90.8076 336.136C108.569 295.633 90.2833 248.34 49.9552 230.502Z" fill="#177245"/>
<path d="M174.379 327.121C172.417 327.121 170.59 327.688 169.025 328.645C165.626 319.829 157.253 313.503 147.372 313.128C139.993 303.212 128.213 296.79 114.939 296.79C103.358 296.79 92.9127 301.688 85.5413 309.522C84.1989 309.323 82.8247 309.219 81.4267 309.219C70.9177 309.219 61.767 315.019 56.9454 323.595C55.889 323.34 54.7928 323.204 53.6649 323.204C45.8487 323.204 39.502 329.57 39.502 337.428H184.65C184.65 331.732 180.051 327.113 174.379 327.113V327.121Z" fill="#CFECEC"/>
<path d="M360.213 139.252H133.066C125.409 139.252 119.205 145.483 119.205 153.174V336.479H374.082V153.174C374.082 145.483 367.878 139.252 360.221 139.252H360.213Z" fill="#A83B5D"/>
<path d="M383.471 176.381H128.594V336.487H383.471V176.381Z" fill="#F2F0EB"/>
<path d="M139.532 139.252H372.525C378.562 139.252 383.471 144.175 383.471 150.246V176.381H128.594V150.246C128.594 144.183 133.495 139.252 139.54 139.252H139.532Z" fill="#1C352D"/>
<path d="M170.924 189.552H141.708V218.895H170.924V189.552Z" fill="#CFECEC"/>
<path d="M204.461 189.552H175.245V218.895H204.461V189.552Z" fill="#CFECEC"/>
<path d="M237.997 189.552H208.782V218.895H237.997V189.552Z" fill="#CFECEC"/>
<path d="M271.534 189.552H242.318V218.895H271.534V189.552Z" fill="#CFECEC"/>
<path d="M305.07 189.552H275.855V218.895H305.07V189.552Z" fill="#CFECEC"/>
<path d="M338.607 189.552H309.392V218.895H338.607V189.552Z" fill="#CFECEC"/>
<path d="M372.144 189.552H342.928V218.895H372.144V189.552Z" fill="#CFECEC"/>
<path d="M170.924 224.583H141.708V253.925H170.924V224.583Z" fill="#CFECEC"/>
<path d="M204.461 224.583H175.245V253.925H204.461V224.583Z" fill="#CFECEC"/>
<path d="M237.997 224.583H208.782V253.925H237.997V224.583Z" fill="#CFECEC"/>
<path d="M271.534 224.583H242.318V253.925H271.534V224.583Z" fill="#CFECEC"/>
<path d="M305.07 224.583H275.855V253.925H305.07V224.583Z" fill="#CFECEC"/>
<path d="M338.607 224.583H309.392V253.925H338.607V224.583Z" fill="#CFECEC"/>
<path d="M372.144 224.583H342.928V253.925H372.144V224.583Z" fill="#CFECEC"/>
<path d="M170.924 259.613H141.708V288.956H170.924V259.613Z" fill="#CFECEC"/>
<path d="M204.461 259.613H175.245V288.956H204.461V259.613Z" fill="#CFECEC"/>
<path d="M237.997 259.613H208.782V288.956H237.997V259.613Z" fill="#CFECEC"/>
<path d="M271.534 259.613H242.318V288.956H271.534V259.613Z" fill="#CFECEC"/>
<path d="M305.07 259.613H275.855V288.956H305.07V259.613Z" fill="#CFECEC"/>
<path d="M338.607 259.613H309.392V288.956H338.607V259.613Z" fill="#CFECEC"/>
<path d="M372.144 259.613H342.928V288.956H372.144V259.613Z" fill="#CFECEC"/>
<path d="M170.924 294.636H141.708V323.978H170.924V294.636Z" fill="#CFECEC"/>
<path d="M204.461 294.636H175.245V323.978H204.461V294.636Z" fill="#CFECEC"/>
<path d="M237.997 294.636H208.782V323.978H237.997V294.636Z" fill="#CFECEC"/>
<path d="M271.534 294.636H242.318V323.978H271.534V294.636Z" fill="#CFECEC"/>
<path d="M305.07 294.636H275.855V323.978H305.07V294.636Z" fill="#CFECEC"/>
<path d="M338.607 294.636H309.392V323.978H338.607V294.636Z" fill="#CFECEC"/>
<path d="M372.144 294.636H342.928V323.978H372.144V294.636Z" fill="#CFECEC"/>
<path d="M302.846 197.036H288.016V199.916H302.846V197.036Z" fill="#F2F0EB"/>
<path d="M302.846 202.78H288.016V205.66H302.846V202.78Z" fill="#F2F0EB"/>
<path d="M302.838 208.523H295.427V211.403H302.838V208.523Z" fill="#F2F0EB"/>
<path d="M302.846 302.302H288.016V305.182H302.846V302.302Z" fill="#F2F0EB"/>
<path d="M302.846 308.046H288.016V310.926H302.846V308.046Z" fill="#F2F0EB"/>
<path d="M302.838 313.79H295.427V316.67H302.838V313.79Z" fill="#F2F0EB"/>
<path d="M202.292 267.096H187.462V269.976H202.292V267.096Z" fill="#F2F0EB"/>
<path d="M202.292 272.84H187.462V275.72H202.292V272.84Z" fill="#F2F0EB"/>
<path d="M202.284 278.584H194.873V281.464H202.284V278.584Z" fill="#F2F0EB"/>
<path d="M156.316 211.005C160.045 211.005 163.068 207.969 163.068 204.223C163.068 200.478 160.045 197.442 156.316 197.442C152.587 197.442 149.564 200.478 149.564 204.223C149.564 207.969 152.587 211.005 156.316 211.005Z" fill="#1C352D"/>
<path d="M225.938 245.539C229.392 244.128 231.053 240.172 229.647 236.703C228.242 233.234 224.303 231.566 220.849 232.977C217.395 234.389 215.734 238.345 217.139 241.814C218.545 245.283 222.484 246.951 225.938 245.539Z" fill="#1C352D"/>
<path d="M163.68 158.399C163.68 164.494 158.763 169.432 152.694 169.432C146.625 169.432 141.708 164.494 141.708 158.399C141.708 152.304 146.625 147.366 152.694 147.366C158.763 147.366 163.68 152.304 163.68 158.399Z" fill="#B72C54"/>
<path d="M152.694 165.292C149.787 165.292 147.412 162.906 147.412 159.987V126.249C147.412 123.329 149.787 120.943 152.694 120.943C155.601 120.943 157.976 123.329 157.976 126.249V159.987C157.976 162.906 155.601 165.292 152.694 165.292Z" fill="#98D3E5"/>
<path d="M152.694 149.065C149.787 149.065 147.412 146.68 147.412 143.76V126.256C147.412 123.337 149.787 120.951 152.694 120.951C155.601 120.951 157.976 123.337 157.976 126.256V143.76C157.976 146.68 155.601 149.065 152.694 149.065Z" fill="#F2F0EB"/>
<path d="M194.071 158.399C194.071 164.494 189.154 169.432 183.085 169.432C177.017 169.432 172.1 164.494 172.1 158.399C172.1 152.304 177.017 147.366 183.085 147.366C189.154 147.366 194.071 152.304 194.071 158.399Z" fill="#B72C54"/>
<path d="M183.085 165.292C180.178 165.292 177.803 162.906 177.803 159.987V126.249C177.803 123.329 180.178 120.943 183.085 120.943C185.992 120.943 188.367 123.329 188.367 126.249V159.987C188.367 162.906 185.992 165.292 183.085 165.292Z" fill="#98D3E5"/>
<path d="M183.085 149.065C180.178 149.065 177.803 146.68 177.803 143.76V126.256C177.803 123.337 180.178 120.951 183.085 120.951C185.992 120.951 188.367 123.337 188.367 126.256V143.76C188.367 146.68 185.992 149.065 183.085 149.065Z" fill="#F2F0EB"/>
<path d="M342.34 158.399C342.34 164.494 337.423 169.432 331.355 169.432C325.286 169.432 320.369 164.494 320.369 158.399C320.369 152.304 325.286 147.366 331.355 147.366C337.423 147.366 342.34 152.304 342.34 158.399Z" fill="#B72C54"/>
<path d="M331.355 165.292C328.447 165.292 326.072 162.906 326.072 159.987V126.249C326.072 123.329 328.447 120.943 331.355 120.943C334.262 120.943 336.637 123.329 336.637 126.249V159.987C336.637 162.906 334.262 165.292 331.355 165.292Z" fill="#98D3E5"/>
<path d="M331.355 149.065C328.447 149.065 326.072 146.68 326.072 143.76V126.256C326.072 123.337 328.447 120.951 331.355 120.951C334.262 120.951 336.637 123.337 336.637 126.256V143.76C336.637 146.68 334.262 149.065 331.355 149.065Z" fill="#F2F0EB"/>
<path d="M372.731 158.399C372.731 164.494 367.815 169.432 361.746 169.432C355.677 169.432 350.76 164.494 350.76 158.399C350.76 152.304 355.677 147.366 361.746 147.366C367.815 147.366 372.731 152.304 372.731 158.399Z" fill="#B72C54"/>
<path d="M361.746 165.292C358.838 165.292 356.463 162.906 356.463 159.987V126.249C356.463 123.329 358.838 120.943 361.746 120.943C364.653 120.943 367.028 123.329 367.028 126.249V159.987C367.028 162.906 364.653 165.292 361.746 165.292Z" fill="#98D3E5"/>
<path d="M361.746 149.065C358.838 149.065 356.463 146.68 356.463 143.76V126.256C356.463 123.337 358.838 120.951 361.746 120.951C364.653 120.951 367.028 123.337 367.028 126.256V143.76C367.028 146.68 364.653 149.065 361.746 149.065Z" fill="#F2F0EB"/>
<path d="M263.09 268.085H250.762V280.467H263.09V268.085Z" fill="#177245"/>
<path d="M330.163 303.116H317.835V315.498H330.163V303.116Z" fill="#177245"/>
<path d="M256.926 211.795C252.764 211.795 249.38 208.396 249.38 204.216C249.38 200.035 252.764 196.637 256.926 196.637C261.088 196.637 264.472 200.035 264.472 204.216C264.472 208.396 261.088 211.795 256.926 211.795ZM256.926 198.24C253.645 198.24 250.969 200.921 250.969 204.224C250.969 207.526 253.637 210.207 256.926 210.207C260.215 210.207 262.883 207.526 262.883 204.224C262.883 200.921 260.215 198.24 256.926 198.24Z" fill="#ECB220"/>
<path d="M357.536 246.825C353.374 246.825 349.99 243.426 349.99 239.246C349.99 235.066 353.374 231.667 357.536 231.667C361.698 231.667 365.082 235.066 365.082 239.246C365.082 243.426 361.698 246.825 357.536 246.825ZM357.536 233.271C354.255 233.271 351.578 235.951 351.578 239.254C351.578 242.557 354.247 245.237 357.536 245.237C360.824 245.237 363.493 242.557 363.493 239.254C363.493 235.951 360.824 233.271 357.536 233.271Z" fill="#ECB220"/>
<path d="M189.853 316.886C185.69 316.886 182.307 313.487 182.307 309.307C182.307 305.127 185.69 301.728 189.853 301.728C194.015 301.728 197.399 305.127 197.399 309.307C197.399 313.487 194.015 316.886 189.853 316.886ZM189.853 303.332C186.572 303.332 183.895 306.012 183.895 309.315C183.895 312.618 186.564 315.298 189.853 315.298C193.141 315.298 195.81 312.618 195.81 309.315C195.81 306.012 193.141 303.332 189.853 303.332Z" fill="#ECB220"/>
<path d="M367.902 219.086C372.776 219.086 376.727 215.118 376.727 210.223C376.727 205.328 372.776 201.359 367.902 201.359C363.028 201.359 359.077 205.328 359.077 210.223C359.077 215.118 363.028 219.086 367.902 219.086Z" fill="#1C352D"/>
<path d="M423.108 234.276H434.483C442.871 234.276 449.734 241.153 449.734 249.553C449.734 257.954 442.871 264.831 434.483 264.831H423.108C414.72 264.831 407.857 257.954 407.857 249.553C407.857 241.153 414.72 234.276 423.108 234.276Z" fill="#284159"/>
<path d="M406.523 246.226C410.947 247.774 419.018 249.944 429.177 249.043C439.591 248.117 447.304 244.392 451.386 242.038C448.996 235.337 446.605 228.627 444.214 221.918L444.492 192.743C443.809 185.364 439.607 179.724 432.251 180.418L417.905 181.758C408.413 182.643 403.886 186.553 404.767 196.062L409.986 226.13L406.531 246.226H406.523Z" fill="#177245"/>
<path d="M433.49 182.301C434.181 186.01 429.725 189.951 423.545 191.108C417.357 192.265 411.789 190.199 411.098 186.497C410.407 182.787 414.863 178.846 421.043 177.689C427.231 176.533 432.799 178.599 433.49 182.301Z" fill="#FFB692"/>
<path d="M412.7 123.513L417.74 122.91C427.497 121.743 436.367 128.749 437.53 138.556L442.244 178.324L401.836 183.156L397.122 143.388C395.96 133.589 402.935 124.68 412.7 123.513Z" fill="#54321A"/>
<path d="M404.703 151.954L401.966 152.282L405.572 182.702L408.309 182.374L404.703 151.954Z" fill="#875330"/>
<path d="M434.887 148.348L432.15 148.675L435.756 179.095L438.493 178.767L434.887 148.348Z" fill="#875330"/>
<path d="M421.805 130.157L410.431 131.514C410.161 131.546 409.906 131.354 409.875 131.075C409.843 130.804 410.033 130.548 410.311 130.516L421.686 129.16C421.956 129.128 422.211 129.32 422.242 129.599C422.274 129.87 422.075 130.118 421.805 130.157Z" fill="#177245"/>
<path d="M436.614 148.672L400.371 153.006C398.89 153.184 397.832 154.533 398.008 156.021L398.097 156.773C398.274 158.261 399.617 159.323 401.099 159.146L437.342 154.812C438.823 154.635 439.881 153.285 439.705 151.798L439.615 151.045C439.439 149.558 438.095 148.495 436.614 148.672Z" fill="#FF9292"/>
<path d="M438.085 151.829L438.043 151.473C437.959 150.764 437.319 150.258 436.613 150.342L400.771 154.622C400.065 154.706 399.561 155.349 399.645 156.058L399.687 156.414C399.771 157.123 400.411 157.629 401.117 157.545L436.959 153.265C437.665 153.181 438.169 152.538 438.085 151.829Z" fill="#AA635F"/>
<path d="M418.342 149.647C413.099 150.277 409.35 155.04 409.978 160.289L413.028 186.034L432.012 183.768L428.962 158.024C428.343 152.774 423.585 149.017 418.342 149.647Z" fill="#FFB692"/>
<path d="M409.295 154.506L411.217 170.741C411.837 175.99 416.595 179.748 421.837 179.117C427.08 178.487 430.829 173.724 430.202 168.475L428.279 152.24" fill="#FF9292"/>
<path d="M421.368 175.192C417.444 175.663 405.315 172.384 404.195 162.922L400.478 145.307C399.405 136.237 405.871 128.003 414.926 126.918L416.34 126.751C425.396 125.666 433.609 132.144 434.689 141.223L435.198 159.221C436.318 168.682 426.953 174.53 421.368 175.2V175.192Z" fill="#FFB692"/>
<path d="M414.133 161.016C415.936 160.976 418.478 160.8 420.924 160.218C422.537 159.835 423.609 161.965 422.568 163.537C421.464 165.204 419.725 166.672 417.024 166.544C414.808 166.441 413.497 165.675 412.711 164.741C411.607 163.425 412.52 161.048 414.133 161.016Z" fill="#252538"/>
<path d="M417.024 166.544C419.725 166.672 421.464 165.204 422.568 163.537C422.727 163.305 422.823 163.05 422.894 162.803C422.005 162.244 420.765 161.901 419.026 162.045C416.333 162.26 414.8 163.936 413.934 165.731C413.934 165.731 413.934 165.731 413.934 165.739C414.697 166.169 415.698 166.481 417.032 166.544H417.024Z" fill="#FF9292"/>
<path d="M416.047 164.183C416.245 164.67 417.27 164.734 418.319 164.327C419.375 163.92 420.066 163.194 419.867 162.707C419.669 162.221 418.644 162.157 417.596 162.564C416.539 162.971 415.848 163.697 416.047 164.183Z" fill="#FFABAB"/>
<path d="M414.133 161.016C415.936 160.976 418.478 160.8 420.924 160.218C421.917 159.987 422.695 160.697 422.918 161.646C421.385 162.683 419.161 163.393 416.666 163.505C415.062 163.577 413.553 163.393 412.25 163.018C412.377 161.989 413.116 161.04 414.133 161.016Z" fill="#F2F0EB"/>
<path d="M410.24 150.27L406.459 150.724C405.601 150.828 404.982 151.61 405.085 152.472C405.188 153.333 405.967 153.947 406.825 153.844L410.606 153.389C411.463 153.285 412.083 152.504 411.98 151.642C411.876 150.78 411.098 150.166 410.24 150.27Z" fill="#FF9292"/>
<path d="M427.231 148.243L423.45 148.698C422.592 148.802 421.972 149.584 422.076 150.445C422.179 151.307 422.957 151.921 423.815 151.817L427.596 151.363C428.454 151.259 429.074 150.477 428.97 149.616C428.867 148.754 428.089 148.14 427.231 148.243Z" fill="#FF9292"/>
<path d="M408.604 151.969C407.5 152.104 406.706 153.11 406.841 154.211C406.976 155.319 407.977 156.109 409.081 155.974C410.185 155.838 410.979 154.833 410.844 153.732C410.709 152.623 409.708 151.833 408.604 151.969Z" fill="#252538"/>
<path d="M423.775 150.158C422.671 150.294 421.877 151.299 422.012 152.4C422.147 153.509 423.148 154.299 424.252 154.163C425.356 154.027 426.151 153.022 426.015 151.921C425.88 150.812 424.88 150.023 423.775 150.158Z" fill="#252538"/>
<path d="M425.571 151.865L427.239 149.743L423.72 150.166L425.571 151.865Z" fill="#252538"/>
<path d="M406.936 154.091L408.604 151.969L405.085 152.392L406.936 154.091Z" fill="#252538"/>
<path d="M427.993 146.328L424.395 145.65C423.609 145.499 422.846 146.017 422.695 146.815C422.544 147.605 423.061 148.371 423.855 148.514L427.453 149.192C428.24 149.344 429.002 148.825 429.153 148.028C429.304 147.238 428.788 146.472 427.993 146.328Z" fill="#54321A"/>
<path d="M409.47 147.429L406.126 148.937C405.395 149.264 405.069 150.134 405.395 150.868C405.728 151.602 406.586 151.929 407.317 151.594L410.661 150.086C411.392 149.759 411.718 148.889 411.392 148.155C411.066 147.422 410.201 147.094 409.47 147.429Z" fill="#54321A"/>
<path d="M424.292 170.19C424.474 171.084 422.886 172.169 420.749 172.607C418.612 173.046 416.73 172.671 416.547 171.77C416.364 170.876 417.953 169.791 420.09 169.352C422.226 168.914 424.109 169.289 424.292 170.19Z" fill="#FF9292"/>
<path d="M420.217 158.67L414.156 159.396L414.101 158.957C413.902 157.282 415.101 155.758 416.77 155.559C418.446 155.359 419.963 156.556 420.161 158.231L420.217 158.67Z" fill="#FF9292"/>
<path d="M416.642 123.065L413.791 123.409C403.417 124.645 396.013 134.075 397.245 144.462L397.658 147.956L416.499 145.706L419.264 142.188L419.637 145.331L419.891 145.3L429.256 133.381L430.519 144.023L438.065 143.122L437.652 139.627C436.421 129.24 427.016 121.821 416.642 123.057V123.065Z" fill="#54321A"/>
<path d="M430.059 126.6C429.622 126.281 429.177 125.977 428.716 125.698L422.298 133.867L421.79 129.567L413.791 139.747L397.126 141.742C397.11 142.276 397.126 142.819 397.158 143.369L414.649 141.279L420.646 133.644L421.154 137.944L430.067 126.608L430.059 126.6Z" fill="#875330"/>
<path d="M418.882 256.43C366.917 268.062 386.926 288.293 396.8 316.982" stroke="#284159" stroke-width="15" stroke-miterlimit="10"/>
<path d="M440.702 255.018C426.46 300.874 443.904 294.5 474.477 321.09" stroke="#284159" stroke-width="15" stroke-miterlimit="10"/>
<path d="M388.825 315.226L388.904 324.018C388.904 324.018 377.95 324.17 375.242 336.479L405.347 336.455L404.862 315.091L388.825 315.234V315.226Z" fill="#CBA560"/>
<path d="M396.808 324.497C396.768 326.403 397.936 327.975 399.413 327.999C400.89 328.031 402.114 326.507 402.146 324.6C402.177 322.694 401.018 321.122 399.54 321.098C398.063 321.066 396.839 322.59 396.808 324.497Z" fill="#19283B"/>
<path d="M464.715 322.39L466.836 325.047C466.836 325.047 457.066 325.518 456.208 336.479L488.259 336.455L485.709 325.757C485.455 324.672 484.987 323.659 484.335 322.757L476.376 311.756L464.723 322.39H464.715Z" fill="#CBA560"/>
<path d="M475.987 324.696C476.4 326.555 477.901 327.807 479.339 327.48C480.776 327.161 481.61 325.39 481.197 323.523C480.784 321.664 479.283 320.412 477.845 320.739C476.408 321.058 475.574 322.829 475.987 324.696Z" fill="#19283B"/>
<path d="M439.201 192.018C431.607 235.911 375.162 221.368 375.162 221.368" stroke="#FFB692" stroke-width="9" stroke-miterlimit="10"/>
<path d="M379.118 219.397C381.176 214.06 373.034 212.496 373.034 212.496L369.237 208.108C369.237 208.108 365.496 211.674 369.65 214.762C369.65 214.762 364.542 215.416 361.174 213.541C357.06 211.244 358.037 222.341 361.333 225.811C363.12 227.694 366.433 225.699 369.626 226.457C374.082 227.51 380.556 225.907 379.118 219.397Z" fill="#FFB692"/>
<path d="M368.831 220.697L368.879 221.12C368.879 221.12 363.486 222.476 359.029 221.112C358.966 220.865 358.902 220.617 358.847 220.37C360.578 221.08 363.891 221.886 368.823 220.705L368.831 220.697Z" fill="#177245"/>
<path d="M368.99 223.817C368.99 223.817 364.137 225.093 360.428 224.59C360.3 224.367 360.173 224.136 360.054 223.888C361.627 224.136 364.852 224.391 368.943 223.362L368.99 223.809V223.817Z" fill="#177245"/>
<path d="M368.712 217.809C368.712 217.809 363.255 219.357 358.458 216.748C358.458 216.389 358.481 216.046 358.521 215.727C360.364 216.804 363.811 218.2 368.665 217.53L368.72 217.817L368.712 217.809Z" fill="#177245"/>
<path d="M429.224 202.229L433.069 189.082C434.332 185.444 438.288 183.521 441.902 184.79C445.524 186.058 447.438 190.031 446.175 193.661L442.331 206.808L429.216 202.229H429.224Z" fill="#1B7BBC"/>
<path d="M268.476 100.472H234.518V148.706H282.543V114.601L268.476 100.472Z" fill="#EDCB3A"/>
<path d="M268.476 100.472V114.601H282.543L268.476 100.472Z" fill="#FF8B0D"/>
<path d="M276.101 119.794H240.96V122.148H276.101V119.794Z" fill="#F2F0EB"/>
<path d="M276.101 126.432H240.96V128.786H276.101V126.432Z" fill="#F2F0EB"/>
<path d="M258.531 133.069H240.96V135.423H258.531V133.069Z" fill="#F2F0EB"/>
<path d="M128.809 210.709H97.647V197.729H128.809L136.339 204.223L128.809 210.709Z" fill="#EDCB3A"/>
<path d="M128.809 245.453H97.647V232.473H128.809L136.339 238.967L128.809 245.453Z" fill="#9DC11E"/>
<path d="M147.491 155.296C115.98 164.925 93.8183 153.014 86.4072 124.214" stroke="#FFB692" stroke-width="9" stroke-miterlimit="10"/>
<path d="M87.027 141.702L80.0448 129.926C78.2496 126.528 79.5364 122.308 82.9203 120.497C86.3041 118.694 90.5062 119.986 92.3093 123.385L99.2914 135.16L87.0349 141.702H87.027Z" fill="#1B7BBC"/>
<path d="M140.978 156.843C138.46 151.81 146.292 149.504 146.292 149.504L149.596 144.837C149.596 144.837 153.608 147.972 149.819 151.403C149.819 151.403 156.976 150.661 159.319 152.727C160.423 153.7 160.971 159.38 159.835 162.228C159.597 162.835 158.914 163.114 158.318 162.859C156.888 162.236 153.933 161.295 150.867 162.34C146.602 163.792 140.184 163.377 140.978 156.859V156.843Z" fill="#FFB692"/>
<path d="M149.819 151.403C149.819 151.403 150.518 155.543 146.078 157.538C146.078 157.538 149.676 155.097 149.493 151.443L149.819 151.403Z" fill="#177245"/>
<path d="M150.113 159.763C150.113 159.763 151.328 156.588 150.796 153.229C150.796 153.229 153.29 155.918 150.113 159.763Z" fill="#177245"/>
<path d="M150.542 158.543L150.669 158.295C150.669 158.295 156.404 158.487 160.05 161.574C160.026 161.67 159.994 161.758 159.97 161.846C158.477 160.824 154.775 158.63 150.542 158.543Z" fill="#177245"/>
<path d="M151.264 154.785L151.137 154.354C151.137 154.354 156.674 152.823 160.24 155.312C160.415 156.381 160.486 157.641 160.431 158.862C159.255 158.104 155.617 156.094 151.169 156.78L151.153 156.437C151.153 156.437 156.721 154.881 160.343 158.208L160.296 155.767C160.296 155.767 156.396 153.238 151.256 154.785H151.264Z" fill="#177245"/>
<path d="M83.373 197.067V336.312" stroke="#284159" stroke-width="13" stroke-miterlimit="10"/>
<path d="M91.8723 314.7L91.7929 323.707C91.7929 323.707 102.993 323.866 105.765 336.479L74.9849 336.455L75.4774 314.556L91.8723 314.7Z" fill="#CBA560"/>
<path d="M83.7144 324.193C83.7541 326.148 82.5626 327.759 81.0534 327.783C79.5441 327.815 78.297 326.251 78.2573 324.297C78.2176 322.342 79.4091 320.731 80.9183 320.707C82.4275 320.683 83.6746 322.239 83.7144 324.193Z" fill="#19283B"/>
<path d="M79.2901 173.565H67.6611C59.0494 173.565 52.0684 180.576 52.0684 189.225C52.0684 197.874 59.0494 204.886 67.6611 204.886H79.2901C87.9017 204.886 94.8828 197.874 94.8828 189.225C94.8828 180.576 87.9017 173.565 79.2901 173.565Z" fill="#284159"/>
<path d="M93.2465 180.45C93.2545 182.165 92.2933 183.753 90.7523 184.487C87.3367 186.122 82.3801 187.917 76.232 188.356C67.5738 188.962 60.6154 186.593 56.4611 184.678C54.8963 183.952 53.9034 182.372 53.8954 180.649C53.816 165.053 53.7286 150.756 53.6492 135.248C53.6015 126.289 60.7902 118.989 69.7105 118.941L77.8445 118.901C86.169 118.853 92.9606 125.602 93.0003 133.963L93.2545 180.45H93.2465Z" fill="#177245"/>
<path d="M63.2207 120.185C62.6408 123.608 66.7793 127.166 72.4747 128.139C78.1621 129.112 83.2458 127.134 83.8256 123.712C84.4055 120.289 80.267 116.731 74.5717 115.758C68.8843 114.784 63.8006 116.763 63.2207 120.185Z" fill="#FFB692"/>
<path d="M73.1975 69.0479H72.435C67.5578 69.0798 63.6417 75.2945 63.6815 82.9452L63.88 120.848L82.2926 120.752L82.094 82.8494C82.0543 75.2067 78.0668 69.0239 73.1975 69.0558V69.0479Z" fill="#FFB692"/>
<path d="M73.1975 69.0479H72.435C67.5578 69.0798 63.6417 74.8478 63.6815 81.932L63.8165 107.828C63.8403 112.934 67.9867 117.05 73.0704 117.026C78.1542 117.002 82.2529 112.838 82.2291 107.732L82.094 81.8363C82.0543 74.7441 78.0747 69.024 73.1975 69.0479Z" fill="#177245"/>
<path d="M73.3008 117.888C63.1175 117.944 54.8167 109.695 54.7611 99.4673L54.6658 81.8843C54.6102 72.0796 62.49 64.0858 72.2523 64.038H73.7774C83.5397 63.9742 91.4989 71.8881 91.5466 81.6928L91.6419 99.2759C91.6975 109.503 83.4841 117.84 73.3008 117.896V117.888Z" fill="#252538"/>
<path d="M77.1775 103.4C77.0345 104.27 75.2473 104.684 73.182 104.341C71.1247 103.998 69.5678 103.009 69.7108 102.148C69.8538 101.278 71.641 100.863 73.7063 101.206C75.7636 101.549 77.3205 102.538 77.1775 103.4Z" fill="#177245"/>
<path d="M64.3408 197.067V336.312" stroke="#284159" stroke-width="13" stroke-miterlimit="10"/>
<path d="M72.8401 314.7L72.7607 323.707C72.7607 323.707 83.9607 323.866 86.7329 336.479L55.9526 336.455L56.4451 314.556L72.8401 314.7Z" fill="#CBA560"/>
<path d="M64.6743 324.193C64.714 326.148 63.5225 327.759 62.0133 327.783C60.5041 327.815 59.257 326.252 59.2173 324.297C59.1776 322.342 60.3691 320.731 61.8783 320.707C63.3875 320.675 64.6346 322.239 64.6743 324.193Z" fill="#19283B"/>
<path d="M91.0939 91.5054H54.515C52.9184 91.5054 51.6157 90.205 51.6157 88.5935C51.6157 86.99 52.9105 85.6816 54.515 85.6816H91.0939C92.6905 85.6816 93.9932 86.982 93.9932 88.5935C93.9932 90.1971 92.6985 91.5054 91.0939 91.5054Z" fill="#FFB692"/>
<path d="M54.5149 90.0053C53.7364 90.0053 53.1089 89.375 53.1089 88.5932C53.1089 87.8114 53.7364 87.1812 54.5149 87.1812H91.0938C91.8722 87.1812 92.4997 87.8114 92.4997 88.5932C92.4997 89.375 91.8722 90.0053 91.0938 90.0053H54.5149Z" fill="#AA635F"/>
<path d="M83.1427 102.674L63.3163 102.778C58.6218 102.802 54.801 99.0043 54.7772 94.2895L54.7137 82.6977C54.6581 72.4862 62.8555 64.1653 73.023 64.1175C83.1904 64.0616 91.4753 72.2947 91.5229 82.5063L91.5865 94.098C91.6103 98.8129 87.8293 102.65 83.1348 102.674H83.1427Z" fill="#252538"/>
<path d="M73.2851 112.838C64.1821 112.886 56.771 105.514 56.7154 96.3716L56.636 82.4743C56.5883 73.7147 63.6261 66.5666 72.3478 66.5267H73.7061C82.4279 66.4709 89.5451 73.5392 89.5848 82.2988L89.6642 96.1961C89.7119 105.339 82.3723 112.782 73.2693 112.838H73.2851Z" fill="#FFB692"/>
<path d="M85.1206 73.8185C90.5078 73.8185 94.875 69.4324 94.875 64.0218C94.875 58.6112 90.5078 54.2251 85.1206 54.2251C79.7334 54.2251 75.3662 58.6112 75.3662 64.0218C75.3662 69.4324 79.7334 73.8185 85.1206 73.8185Z" fill="#252538"/>
<path d="M79.2751 65.0133C79.8223 61.6164 77.524 58.4171 74.1418 57.8676C70.7596 57.318 67.5741 59.6262 67.0269 63.0231C66.4797 66.4201 68.778 69.6193 72.1602 70.1689C75.5425 70.7185 78.7279 68.4103 79.2751 65.0133Z" fill="#252538"/>
<path d="M69.2579 85.5299L65.4689 85.5538C64.6031 85.5538 63.912 86.2638 63.92 87.1334C63.92 87.995 64.6269 88.697 65.4928 88.6891L69.2817 88.6651C70.1475 88.6651 70.8386 87.9551 70.8307 87.0855C70.8307 86.2239 70.1237 85.5219 69.2579 85.5299Z" fill="#FF9292"/>
<path d="M86.2804 85.442L82.4914 85.4659C81.6256 85.4659 80.9345 86.1759 80.9425 87.0455C80.9425 87.9151 81.6494 88.6091 82.5152 88.6012L86.3042 88.5772C87.17 88.5772 87.8611 87.8672 87.8531 86.9976C87.8531 86.1281 87.1462 85.434 86.2804 85.442Z" fill="#FF9292"/>
<path d="M68.5668 85.3146C67.5024 85.3146 66.6445 86.1922 66.6445 87.2612C66.6445 88.3302 67.5183 89.1918 68.5827 89.1838C69.6471 89.1838 70.505 88.3063 70.497 87.2373C70.497 86.1682 69.6233 85.3066 68.5589 85.3066L68.5668 85.3146Z" fill="#252538"/>
<path d="M83.1825 85.2428C82.1181 85.2428 81.2602 86.1204 81.2681 87.1894C81.2681 88.2584 82.1419 89.12 83.2063 89.1121C84.2707 89.1121 85.1286 88.2345 85.1206 87.1655C85.1206 86.0965 84.2469 85.2349 83.1825 85.2349V85.2428Z" fill="#252538"/>
<path d="M85.4064 81.6686L82.0544 80.6315C81.3236 80.4001 80.5451 80.815 80.3148 81.5569C80.0844 82.2909 80.4975 83.0727 81.2362 83.304L84.5883 84.3411C85.3191 84.5725 86.0975 84.1576 86.3279 83.4157C86.5582 82.6818 86.1452 81.8999 85.4064 81.6686Z" fill="#252538"/>
<path d="M67.685 80.7034L64.3488 81.7804C63.618 82.0198 63.2129 82.8016 63.4512 83.5355C63.6895 84.2695 64.4679 84.6764 65.1987 84.437L68.5349 83.36C69.2657 83.1207 69.6708 82.3389 69.4325 81.6049C69.1942 80.871 68.4157 80.4641 67.685 80.7034Z" fill="#252538"/>
<path d="M77.4313 106.097C77.2883 106.966 75.501 107.381 73.4437 107.038C71.3864 106.695 69.8295 105.706 69.9725 104.844C70.1155 103.983 71.9027 103.56 73.96 103.903C76.0173 104.246 77.5742 105.227 77.4313 106.097Z" fill="#FF9292"/>
<path d="M75.9223 95.263C74.4051 95.2709 73.1739 94.0424 73.166 92.5186L73.1421 88.051C73.1342 86.5273 74.3575 85.2907 75.8746 85.2828C77.3918 85.2748 78.623 86.5034 78.631 88.0271L78.6548 92.4947C78.6627 94.0184 77.4395 95.255 75.9223 95.263Z" fill="#FF9292"/>
<path d="M77.3757 93.6912C76.9785 93.6912 76.6449 93.3721 76.6449 92.9652L76.6211 87.7877C76.6211 87.3888 76.9388 87.0617 77.3439 87.0537C77.7411 87.0537 78.0668 87.3728 78.0747 87.7797L78.0985 92.9573C78.0985 93.3562 77.7808 93.6832 77.3757 93.6912Z" fill="#FFABAB"/>
<path d="M78.5037 97.5524C76.5974 97.1694 73.9284 96.5073 71.4342 95.4303C69.7899 94.7202 68.2569 96.7865 69.0671 98.6533C69.925 100.632 71.5057 102.523 74.3971 102.897C76.7642 103.201 78.3131 102.634 79.314 101.789C80.7358 100.592 80.2036 97.8954 78.5037 97.5524Z" fill="#252538"/>
<path d="M74.3968 102.898C71.5055 102.523 69.9248 100.64 69.0669 98.6535C68.9477 98.3743 68.8842 98.0871 68.8604 97.8158C69.9089 97.393 71.291 97.2574 73.118 97.736C75.9378 98.47 77.2485 100.544 77.8363 102.618C77.8363 102.618 77.8363 102.626 77.8363 102.634C76.9466 102.953 75.8266 103.089 74.3968 102.906V102.898Z" fill="#FF9292"/>
<path d="M75.8825 100.576C75.5806 101.055 74.4845 100.935 73.4359 100.297C72.3874 99.6665 71.7917 98.757 72.0935 98.2784C72.3954 97.7997 73.4915 97.9194 74.5401 98.5576C75.5886 99.1878 76.1843 100.097 75.8825 100.576Z" fill="#FFABAB"/>
<path d="M78.5038 97.5524C76.5974 97.1694 73.9285 96.5073 71.4343 95.4303C70.4255 94.9915 69.4643 95.6058 69.0513 96.5791C70.489 97.9752 72.7131 99.1399 75.3424 99.7303C77.0264 100.105 78.6706 100.201 80.1242 100.041C80.1798 98.9166 79.5761 97.7678 78.4959 97.5524H78.5038Z" fill="#F2F0EB"/>
<path d="M181.227 150.493L176.711 134.913L35.1133 176.31L39.629 191.891L181.227 150.493Z" fill="#EDCB3A"/>
<path d="M39.6314 191.892L35.1157 176.312L28.694 178.189L33.2097 193.769L39.6314 191.892Z" fill="#98D3E5"/>
<path d="M19.0003 189.465C17.7532 185.165 20.2157 180.657 24.4971 179.405L28.6832 178.184L33.195 193.765L29.0089 194.985C24.7274 196.238 20.2395 193.765 18.9924 189.465H19.0003Z" fill="#1C352D"/>
<path d="M193.348 143.329L190.766 134.426L176.707 134.912L181.218 150.501L193.348 143.329Z" fill="#F9EBC0"/>
<path d="M190.766 134.426L193.348 143.329L209.314 133.835L190.766 134.426Z" fill="#FF8B0D"/>
<path d="M55.8013 134.673C63.3951 178.567 119.84 164.023 119.84 164.023" stroke="#FFB692" stroke-width="9" stroke-miterlimit="10"/>
<path d="M115.893 162.061C113.835 156.723 121.977 155.16 121.977 155.16L125.774 150.772C125.774 150.772 129.516 154.338 125.361 157.425C125.361 157.425 130.469 158.08 133.837 156.205C137.951 153.907 136.974 165.004 133.678 168.475C131.883 170.357 128.578 168.363 125.385 169.113C120.929 170.166 114.455 168.562 115.893 162.053V162.061Z" fill="#FFB692"/>
<path d="M126.179 163.353L126.132 163.776C126.132 163.776 131.525 165.132 135.982 163.768C136.045 163.52 136.109 163.273 136.164 163.026C134.433 163.736 131.12 164.542 126.187 163.361L126.179 163.353Z" fill="#177245"/>
<path d="M126.021 166.48C126.021 166.48 130.874 167.757 134.583 167.254C134.71 167.031 134.838 166.799 134.957 166.552C133.384 166.799 130.159 167.055 126.068 166.025L126.021 166.472V166.48Z" fill="#177245"/>
<path d="M126.298 160.473C126.298 160.473 131.756 162.021 136.553 159.412C136.553 159.053 136.529 158.71 136.49 158.391C134.647 159.468 131.199 160.864 126.346 160.194L126.291 160.481L126.298 160.473Z" fill="#177245"/>
<path d="M65.7862 144.893L61.9417 131.745C60.6787 128.107 56.7229 126.185 53.1087 127.453C49.4866 128.722 47.5722 132.695 48.8352 136.324L52.6798 149.472L65.7942 144.893H65.7862Z" fill="#1B7BBC"/>
<path d="M333.738 51.7601H303.029V20.918H333.738V51.7601ZM305.174 49.6061H331.593V23.064H305.174V49.6061Z" fill="#1C352D"/>
<path d="M374.447 51.7601H343.738V20.918H374.447V51.7601ZM345.883 49.6061H372.302V23.064H345.883V49.6061Z" fill="#177245"/>
<path d="M415.157 51.7601H384.448V20.918H415.157V51.7601ZM386.592 49.6061H413.012V23.064H386.592V49.6061Z" fill="#177245"/>
<path d="M455.866 51.7601H425.157V20.918H455.866V51.7601ZM427.302 49.6061H453.721V23.064H427.302V49.6061Z" fill="#1C352D"/>
<path d="M333.738 94.6644H303.029V63.8223H333.738V94.6644ZM305.174 92.5104H331.593V65.9763H305.174V92.5104Z" fill="#177245"/>
<path d="M374.447 94.6644H343.738V63.8223H374.447V94.6644ZM345.883 92.5104H372.302V65.9763H345.883V92.5104Z" fill="#1C352D"/>
<path d="M415.157 94.6644H384.448V63.8223H415.157V94.6644ZM386.592 92.5104H413.012V65.9763H386.592V92.5104Z" fill="#177245"/>
<path d="M455.866 94.6644H425.157V63.8223H455.866V94.6644ZM427.302 92.5104H453.721V65.9763H427.302V92.5104Z" fill="#177245"/>
<path d="M358.044 40.7346L354.231 36.8972L355.359 35.7724L358.044 38.4768L365.59 30.8979L366.71 32.0308L358.044 40.7346Z" fill="#177245"/>
<path d="M398.769 40.7346L394.949 36.8972L396.077 35.7724L398.769 38.4768L406.308 30.8979L407.428 32.0308L398.769 40.7346Z" fill="#177245"/>
<path d="M398.769 84.445L394.949 80.6077L396.077 79.4828L398.769 82.1873L406.308 74.6084L407.428 75.7412L398.769 84.445Z" fill="#177245"/>
<path d="M439.233 84.445L435.42 80.6077L436.548 79.4828L439.233 82.1873L446.779 74.6084L447.899 75.7412L439.233 84.445Z" fill="#177245"/>
<path d="M315.961 84.445L312.148 80.6077L313.268 79.4828L315.961 82.1873L323.499 74.6084L324.627 75.7412L315.961 84.445Z" fill="#177245"/>
<path d="M315.306 32.113L314.183 33.2412L321.468 40.5578L322.591 39.4295L315.306 32.113Z" fill="#1C352D"/>
<path d="M321.474 32.1209L314.189 39.4375L315.312 40.5657L322.597 33.2492L321.474 32.1209Z" fill="#1C352D"/>
<path d="M356.014 75.0241L354.891 76.1523L362.176 83.4689L363.299 82.3407L356.014 75.0241Z" fill="#1C352D"/>
<path d="M362.168 75.0218L354.883 82.3384L356.006 83.4666L363.291 76.15L362.168 75.0218Z" fill="#1C352D"/>
<path d="M437.433 32.1149L436.31 33.2432L443.595 40.5597L444.718 39.4315L437.433 32.1149Z" fill="#1C352D"/>
<path d="M443.602 32.1283L436.317 39.4448L437.441 40.5731L444.726 33.2565L443.602 32.1283Z" fill="#1C352D"/>
<path d="M501.834 336.479H0.833984V339H501.834V336.479Z" fill="#3E5C70"/>
</g>
<defs>
<clipPath id="clip0_196_2936">
<rect width="501" height="339" fill="white" transform="translate(0.833984)"/>
</clipPath>
</defs>
</svg>
