<svg width="32" height="32" viewBox="0 0 32 32" fill="none" xmlns="http://www.w3.org/2000/svg">
<path fill-rule="evenodd" clip-rule="evenodd" d="M16.0018 29.9656C9.64324 29.9656 4.47266 24.7905 4.47266 18.4364C4.47266 12.0778 9.64324 6.90723 16.0018 6.90723C22.3559 6.90723 27.5265 12.0778 27.5265 18.4364C27.5265 19.6919 27.324 20.9294 26.928 22.113C26.8515 22.3335 26.595 22.4325 26.3925 22.32C25.695 21.942 24.9075 21.7395 24.111 21.7395C21.4874 21.7395 19.3544 23.8725 19.3544 26.496C19.3544 27.3015 19.5614 28.1026 19.9529 28.8001C20.0654 29.0071 19.9664 29.2636 19.7459 29.3401C18.5444 29.7541 17.2844 29.9656 16.0018 29.9656ZM16.0018 7.65874C10.0572 7.65874 5.22417 12.4918 5.22417 18.4364C5.22417 24.381 10.0572 29.2141 16.0018 29.2141C17.0549 29.2141 18.0944 29.0611 19.0934 28.7641C18.7739 28.0531 18.6074 27.279 18.6074 26.496C18.6074 23.463 21.0734 20.9924 24.111 20.9924C24.8805 20.9924 25.6455 21.1544 26.3475 21.465C26.631 20.4839 26.7795 19.4669 26.7795 18.4364C26.7795 12.4918 21.9419 7.65874 16.0018 7.65874Z" fill="#483C32"/>
<path fill-rule="evenodd" clip-rule="evenodd" d="M16.0021 31.3293C8.89196 31.3293 3.10938 25.5423 3.10938 18.4366C3.10938 11.3265 8.89196 5.54395 16.0021 5.54395C23.1077 5.54395 28.8903 11.3265 28.8903 18.4366C28.8903 19.9982 28.6113 21.5282 28.0668 22.9817C27.9723 23.2337 27.6438 23.3057 27.4503 23.1167C26.5547 22.2302 25.3712 21.7442 24.1112 21.7442C21.4877 21.7442 19.3546 23.8727 19.3546 26.4963C19.3546 27.7653 19.8496 28.9623 20.7496 29.8578C20.9432 30.0513 20.8712 30.3798 20.6191 30.4743C19.1476 31.0413 17.5906 31.3293 16.0021 31.3293ZM16.0021 6.29546C9.30597 6.29546 3.86089 11.7405 3.86089 18.4366C3.86089 25.1328 9.30597 30.5778 16.0021 30.5778C17.3161 30.5778 18.5986 30.3708 19.8316 29.9613C19.0396 28.9803 18.6076 27.7698 18.6076 26.4963C18.6076 23.4587 21.0737 20.9927 24.1112 20.9927C25.3757 20.9927 26.5727 21.4157 27.5493 22.1942C27.9408 20.9837 28.1433 19.7237 28.1433 18.4366C28.1388 11.7405 22.6937 6.29546 16.0021 6.29546Z" fill="#483C32"/>
<path fill-rule="evenodd" clip-rule="evenodd" d="M16.002 11.637C15.795 11.637 15.624 11.4705 15.624 11.2635V8.50496C15.624 8.29796 15.795 8.12695 16.002 8.12695C16.209 8.12695 16.3755 8.29796 16.3755 8.50496V11.2635C16.3755 11.4705 16.209 11.637 16.002 11.637Z" fill="#483C32"/>
<path fill-rule="evenodd" clip-rule="evenodd" d="M25.9334 18.8105H23.1749C22.9679 18.8105 22.7969 18.644 22.7969 18.437C22.7969 18.23 22.9679 18.0635 23.1749 18.0635H25.9334C26.1404 18.0635 26.3069 18.23 26.3069 18.437C26.3069 18.644 26.1404 18.8105 25.9334 18.8105Z" fill="#483C32"/>
<path fill-rule="evenodd" clip-rule="evenodd" d="M16.002 28.7464C15.795 28.7464 15.624 28.5754 15.624 28.3684V25.6098C15.624 25.4028 15.795 25.2363 16.002 25.2363C16.209 25.2363 16.3755 25.4028 16.3755 25.6098V28.3684C16.3755 28.5754 16.209 28.7464 16.002 28.7464Z" fill="#483C32"/>
<path fill-rule="evenodd" clip-rule="evenodd" d="M8.82443 18.8105H6.06589C5.85889 18.8105 5.69238 18.644 5.69238 18.437C5.69238 18.23 5.85889 18.0635 6.06589 18.0635H8.82443C9.03143 18.0635 9.20244 18.23 9.20244 18.437C9.20244 18.644 9.03143 18.8105 8.82443 18.8105Z" fill="#483C32"/>
<path fill-rule="evenodd" clip-rule="evenodd" d="M20.2813 11.3944C19.9978 11.3944 19.8133 11.0794 19.9573 10.8319L20.6413 9.64834C20.7448 9.46834 20.9743 9.40534 21.1543 9.50884C21.3343 9.61234 21.3928 9.84184 21.2938 10.0218L20.6098 11.2054C20.5378 11.3269 20.4118 11.3944 20.2813 11.3944Z" fill="#483C32"/>
<path fill-rule="evenodd" clip-rule="evenodd" d="M23.4183 14.5261C23.0403 14.5261 22.9008 14.0221 23.2338 13.8286L24.4173 13.1446C24.5973 13.0411 24.8268 13.1041 24.9303 13.2841C25.0338 13.4596 24.9708 13.6891 24.7908 13.7926L23.6073 14.4766C23.5488 14.5126 23.4813 14.5261 23.4183 14.5261Z" fill="#483C32"/>
<path fill-rule="evenodd" clip-rule="evenodd" d="M11.0339 27.4149C10.7459 27.4149 10.5659 27.1044 10.7099 26.8524L11.3939 25.6688C11.4974 25.4888 11.7269 25.4258 11.9024 25.5293C12.0824 25.6328 12.1454 25.8624 12.0419 26.0424L11.3579 27.2259C11.2904 27.3474 11.1644 27.4149 11.0339 27.4149Z" fill="#483C32"/>
<path fill-rule="evenodd" clip-rule="evenodd" d="M7.39811 23.7782C7.01561 23.7782 6.8761 23.2697 7.20911 23.0762L8.39263 22.3967C8.57263 22.2932 8.80213 22.3517 8.90564 22.5317C9.00914 22.7117 8.94614 22.9412 8.77063 23.0447L7.58712 23.7287C7.52411 23.7602 7.46111 23.7782 7.39811 23.7782Z" fill="#483C32"/>
<path fill-rule="evenodd" clip-rule="evenodd" d="M8.58099 14.5261C8.51798 14.5261 8.45048 14.5126 8.39198 14.4766L7.20846 13.7926C7.02846 13.6891 6.96996 13.4596 7.07346 13.2841C7.17696 13.1041 7.40647 13.0411 7.58647 13.1446L8.76999 13.8286C9.09849 14.0176 8.96349 14.5261 8.58099 14.5261Z" fill="#483C32"/>
<path fill-rule="evenodd" clip-rule="evenodd" d="M11.7182 11.3944C11.5877 11.3944 11.4617 11.3269 11.3942 11.2054L10.7102 10.0218C10.6067 9.84184 10.6652 9.61234 10.8452 9.50884C11.0252 9.40534 11.2547 9.46834 11.3582 9.64834L12.0422 10.8319C12.1862 11.0794 12.0017 11.3944 11.7182 11.3944Z" fill="#483C32"/>
<path fill-rule="evenodd" clip-rule="evenodd" d="M16.002 19.9939C15.1424 19.9939 14.4404 19.2964 14.4404 18.4369C14.4404 17.5774 15.1424 16.8799 16.002 16.8799C16.857 16.8799 17.559 17.5774 17.559 18.4369C17.559 19.2964 16.857 19.9939 16.002 19.9939ZM16.002 17.6269C15.5564 17.6269 15.1919 17.9914 15.1919 18.4369C15.1919 18.8824 15.5564 19.2424 16.002 19.2424C16.4475 19.2424 16.8075 18.8824 16.8075 18.4369C16.8075 17.9914 16.4475 17.6269 16.002 17.6269Z" fill="#483C32"/>
<path fill-rule="evenodd" clip-rule="evenodd" d="M22.1356 19.6657C22.0681 19.6657 17.5996 19.0447 17.118 18.9772C16.9155 18.9502 16.7715 18.7611 16.7985 18.5586C16.8255 18.3516 17.019 18.2076 17.2215 18.2346L22.1851 18.9187C22.3921 18.9457 22.5361 19.1347 22.5091 19.3417C22.4821 19.5307 22.3201 19.6657 22.1356 19.6657ZM16.002 17.6271C15.795 17.6271 15.624 17.4606 15.624 17.2536V13.6626C15.624 13.4556 15.795 13.2891 16.002 13.2891C16.209 13.2891 16.3755 13.4556 16.3755 13.6626V17.2536C16.3755 17.4606 16.209 17.6271 16.002 17.6271Z" fill="#483C32"/>
<path fill-rule="evenodd" clip-rule="evenodd" d="M6.01677 11.2632C5.91777 11.2632 5.82327 11.2227 5.75127 11.1507L4.72075 10.1202C4.57225 9.97166 4.57225 9.73766 4.72075 9.58916L7.15529 7.15462C7.29929 7.01062 7.5378 7.00612 7.6863 7.15462L8.71681 8.18513C8.87882 8.34714 8.85632 8.61264 8.67631 8.75214C7.7853 9.42715 6.99329 10.2192 6.31378 11.1147C6.24628 11.2047 6.13377 11.2632 6.01677 11.2632ZM5.51726 9.85466L5.98077 10.3227C6.54778 9.62516 7.18679 8.98615 7.8888 8.41914L7.42079 7.95113L5.51726 9.85466Z" fill="#483C32"/>
<path fill-rule="evenodd" clip-rule="evenodd" d="M25.9831 11.2634C25.8661 11.2634 25.7536 11.2094 25.6861 11.1149C25.0111 10.2239 24.2146 9.42741 23.3235 8.7524C23.1435 8.6129 23.1255 8.3474 23.283 8.18989L24.3136 7.15488C24.4621 7.01087 24.7006 7.01087 24.8446 7.15488L27.2791 9.58941C27.4276 9.73792 27.4276 9.97642 27.2791 10.1204L26.2486 11.1554C26.1766 11.2229 26.0821 11.2634 25.9831 11.2634ZM24.1111 8.4194C24.8131 8.98641 25.4521 9.62542 26.0191 10.3229L26.4871 9.85492L24.5791 7.95139L24.1111 8.4194Z" fill="#483C32"/>
<path fill-rule="evenodd" clip-rule="evenodd" d="M28.2152 11.1463C27.9317 11.1463 27.6662 11.0338 27.4637 10.8358L23.5981 6.97022C23.1886 6.55621 23.1886 5.8857 23.5981 5.4717L24.4172 4.65718C24.8312 4.24318 25.5017 4.24318 25.9157 4.65718L29.7812 8.52275C30.1907 8.93225 30.1907 9.60726 29.7812 10.0168L28.9622 10.8358C28.7642 11.0338 28.4987 11.1463 28.2152 11.1463ZM25.1687 5.09819C25.0832 5.09819 25.0067 5.12969 24.9482 5.18819L24.1292 6.00271C24.0122 6.12421 24.0122 6.31771 24.1292 6.43921L27.9947 10.3048C28.1162 10.4263 28.3142 10.4263 28.4312 10.3048L29.2502 9.49026C29.3717 9.36876 29.3717 9.17076 29.2502 9.05375L25.3847 5.18819C25.3262 5.12969 25.2497 5.09819 25.1687 5.09819Z" fill="#483C32"/>
<path fill-rule="evenodd" clip-rule="evenodd" d="M3.78429 11.1463C3.50078 11.1463 3.23528 11.0338 3.03728 10.8358L2.21826 10.0168C1.80876 9.60726 1.80876 8.93225 2.21826 8.52275L6.08832 4.65718C6.49783 4.24318 7.16834 4.24318 7.58235 4.65718L8.40136 5.4717C8.81087 5.8857 8.81087 6.55621 8.40136 6.97022L4.5358 10.8358C4.3333 11.0338 4.06779 11.1463 3.78429 11.1463ZM2.74927 9.05375C2.63227 9.17076 2.63227 9.36876 2.74927 9.49026L3.56828 10.3048C3.68979 10.4263 3.88329 10.4263 4.00479 10.3048L7.87035 6.43921C7.99185 6.32221 7.99185 6.12421 7.87035 6.00271L7.05134 5.18819C6.93434 5.06669 6.73633 5.06669 6.61483 5.18819L2.74927 9.05375Z" fill="#483C32"/>
<path fill-rule="evenodd" clip-rule="evenodd" d="M18.7331 3.27155H13.2655C12.6805 3.27155 12.208 2.79904 12.208 2.21403V1.05752C12.208 0.472507 12.6805 0 13.2655 0H18.7331C19.3181 0 19.7906 0.477007 19.7906 1.05752V2.21403C19.7906 2.79904 19.3181 3.27155 18.7331 3.27155ZM13.2655 0.751512C13.0945 0.751512 12.9595 0.886514 12.9595 1.05752V2.21403C12.9595 2.38504 13.0945 2.52004 13.2655 2.52004H18.7331C18.9041 2.52004 19.0436 2.38504 19.0436 2.21403V1.05752C19.0436 0.886514 18.9041 0.751512 18.7331 0.751512H13.2655Z" fill="#483C32"/>
<path fill-rule="evenodd" clip-rule="evenodd" d="M18.1302 6.47548C18.1077 6.47548 18.0852 6.47548 18.0672 6.47098C16.7037 6.23697 15.2951 6.23697 13.9361 6.47098C13.7066 6.51148 13.4951 6.33147 13.4951 6.10197V2.89792C13.4951 2.69092 13.6661 2.52441 13.8731 2.52441H18.1302C18.3372 2.52441 18.5037 2.69092 18.5037 2.89792V6.10197C18.5037 6.30897 18.3372 6.47548 18.1302 6.47548ZM16.0017 5.54396C16.5867 5.54396 17.1717 5.58446 17.7522 5.66546V3.27143H14.2466V5.66546C14.8271 5.58446 15.4166 5.54396 16.0017 5.54396Z" fill="#483C32"/>
<path fill-rule="evenodd" clip-rule="evenodd" d="M24.1114 30.7489C23.6209 30.7489 23.2159 30.3754 23.1664 29.8939C22.7884 29.8129 22.2439 29.6284 21.9739 29.2144C21.6859 28.7779 21.8074 28.1884 22.2439 27.9003C22.6129 27.6618 23.0854 27.7023 23.4049 27.9948C23.5669 28.0983 24.5119 28.1479 24.5119 27.8373C24.5119 27.7788 24.5029 27.7698 24.4984 27.7608C24.1699 27.3288 21.8164 27.1443 21.8164 25.1553C21.8164 24.2778 22.3159 23.5758 23.1664 23.2383V23.1888C23.1664 22.6668 23.5894 22.2393 24.1114 22.2393C24.6019 22.2393 25.007 22.6173 25.0565 23.0943C25.4345 23.1798 25.979 23.3643 26.249 23.7783C26.537 24.2148 26.4155 24.8043 25.979 25.0878C25.6145 25.3308 25.1375 25.2903 24.8225 24.9978C24.6605 24.8943 23.7154 24.8448 23.7154 25.1553C23.7154 25.2093 23.7244 25.2228 23.7289 25.2318C24.0529 25.6638 26.4065 25.8483 26.4065 27.8373C26.4065 28.7149 25.907 29.4169 25.061 29.7544V29.8039C25.0565 30.3259 24.6335 30.7489 24.1114 30.7489ZM22.7614 28.4944C22.6084 28.4944 22.5139 28.6699 22.5994 28.8004C22.7209 28.9849 23.1304 29.1559 23.5804 29.2054C23.7694 29.2279 23.9134 29.3854 23.9134 29.5789V29.8039C23.9134 30.0604 24.3094 30.0604 24.3094 29.8039V29.4889C24.3094 29.3179 24.4174 29.1739 24.5794 29.1244C24.98 29.0119 25.655 28.6879 25.655 27.8373C25.655 26.3793 23.7154 26.4423 23.1304 25.6863C22.8559 25.3263 22.9099 24.7458 23.3194 24.4353C23.8864 24.0123 25.052 24.1473 25.313 24.4308C25.475 24.6063 25.754 24.3903 25.6235 24.1878C25.502 24.0078 25.0925 23.8368 24.6425 23.7873C24.4534 23.7648 24.3094 23.6028 24.3094 23.4138V23.1888C24.3094 22.9278 23.9134 22.9278 23.9134 23.1888V23.5038C23.9134 23.6703 23.8054 23.8188 23.6434 23.8638C23.2429 23.9808 22.5679 24.3003 22.5679 25.1553C22.5679 26.6133 24.5074 26.5458 25.0925 27.3063C25.3715 27.6663 25.313 28.2469 24.9035 28.5529C24.3409 28.9759 23.1799 28.8454 22.9099 28.5574C22.8694 28.5169 22.8154 28.4944 22.7614 28.4944Z" fill="#483C32"/>
<path fill-rule="evenodd" clip-rule="evenodd" d="M24.111 32.0003C21.0735 32.0003 18.6074 29.5298 18.6074 26.4968C18.6074 23.4592 21.0735 20.9932 24.111 20.9932C27.1441 20.9932 29.6146 23.4592 29.6146 26.4968C29.6146 29.5298 27.1441 32.0003 24.111 32.0003ZM24.111 21.7402C21.4875 21.7402 19.3544 23.8732 19.3544 26.4968C19.3544 29.1158 21.4875 31.2488 24.111 31.2488C26.7345 31.2488 28.8631 29.1158 28.8631 26.4968C28.8631 23.8732 26.73 21.7402 24.111 21.7402Z" fill="#483C32"/>
</svg>
