<svg width="73" height="72" viewBox="0 0 73 72" fill="none" xmlns="http://www.w3.org/2000/svg">
<circle cx="36.834" cy="36" r="36" fill="#CBA560"/>
<path fill-rule="evenodd" clip-rule="evenodd" d="M37.0018 49.9656C30.6432 49.9656 25.4727 44.7905 25.4727 38.4364C25.4727 32.0778 30.6432 26.9072 37.0018 26.9072C43.3559 26.9072 48.5265 32.0778 48.5265 38.4364C48.5265 39.6919 48.324 40.9294 47.928 42.113C47.8515 42.3335 47.595 42.4325 47.3925 42.32C46.695 41.942 45.9075 41.7395 45.111 41.7395C42.4874 41.7395 40.3544 43.8725 40.3544 46.496C40.3544 47.3015 40.5614 48.1026 40.9529 48.8001C41.0654 49.0071 40.9664 49.2636 40.7459 49.3401C39.5444 49.7541 38.2844 49.9656 37.0018 49.9656ZM37.0018 27.6587C31.0572 27.6587 26.2242 32.4918 26.2242 38.4364C26.2242 44.381 31.0572 49.2141 37.0018 49.2141C38.0549 49.2141 39.0944 49.0611 40.0934 48.7641C39.7739 48.0531 39.6074 47.279 39.6074 46.496C39.6074 43.463 42.0734 40.9924 45.111 40.9924C45.8805 40.9924 46.6455 41.1544 47.3475 41.465C47.631 40.4839 47.7795 39.4669 47.7795 38.4364C47.7795 32.4918 42.9419 27.6587 37.0018 27.6587Z" fill="#483C32"/>
<path fill-rule="evenodd" clip-rule="evenodd" d="M37.0021 51.3293C29.892 51.3293 24.1094 45.5423 24.1094 38.4366C24.1094 31.3265 29.892 25.5439 37.0021 25.5439C44.1077 25.5439 49.8903 31.3265 49.8903 38.4366C49.8903 39.9982 49.6113 41.5282 49.0668 42.9817C48.9723 43.2337 48.6438 43.3057 48.4503 43.1167C47.5547 42.2302 46.3712 41.7442 45.1112 41.7442C42.4877 41.7442 40.3546 43.8727 40.3546 46.4963C40.3546 47.7653 40.8496 48.9623 41.7496 49.8578C41.9432 50.0513 41.8712 50.3798 41.6191 50.4743C40.1476 51.0413 38.5906 51.3293 37.0021 51.3293ZM37.0021 26.2955C30.306 26.2955 24.8609 31.7405 24.8609 38.4366C24.8609 45.1328 30.306 50.5778 37.0021 50.5778C38.3161 50.5778 39.5986 50.3708 40.8316 49.9613C40.0396 48.9803 39.6076 47.7698 39.6076 46.4963C39.6076 43.4587 42.0737 40.9927 45.1112 40.9927C46.3757 40.9927 47.5727 41.4157 48.5493 42.1942C48.9408 40.9837 49.1433 39.7237 49.1433 38.4366C49.1388 31.7405 43.6937 26.2955 37.0021 26.2955Z" fill="#483C32"/>
<path fill-rule="evenodd" clip-rule="evenodd" d="M37.002 31.637C36.795 31.637 36.624 31.4705 36.624 31.2635V28.505C36.624 28.298 36.795 28.127 37.002 28.127C37.209 28.127 37.3755 28.298 37.3755 28.505V31.2635C37.3755 31.4705 37.209 31.637 37.002 31.637Z" fill="#483C32"/>
<path fill-rule="evenodd" clip-rule="evenodd" d="M46.9334 38.8105H44.1749C43.9679 38.8105 43.7969 38.644 43.7969 38.437C43.7969 38.23 43.9679 38.0635 44.1749 38.0635H46.9334C47.1404 38.0635 47.3069 38.23 47.3069 38.437C47.3069 38.644 47.1404 38.8105 46.9334 38.8105Z" fill="#483C32"/>
<path fill-rule="evenodd" clip-rule="evenodd" d="M37.002 48.7464C36.795 48.7464 36.624 48.5754 36.624 48.3684V45.6098C36.624 45.4028 36.795 45.2363 37.002 45.2363C37.209 45.2363 37.3755 45.4028 37.3755 45.6098V48.3684C37.3755 48.5754 37.209 48.7464 37.002 48.7464Z" fill="#483C32"/>
<path fill-rule="evenodd" clip-rule="evenodd" d="M29.8244 38.8105H27.0659C26.8589 38.8105 26.6924 38.644 26.6924 38.437C26.6924 38.23 26.8589 38.0635 27.0659 38.0635H29.8244C30.0314 38.0635 30.2024 38.23 30.2024 38.437C30.2024 38.644 30.0314 38.8105 29.8244 38.8105Z" fill="#483C32"/>
<path fill-rule="evenodd" clip-rule="evenodd" d="M41.2813 31.3944C40.9978 31.3944 40.8133 31.0794 40.9573 30.8319L41.6413 29.6483C41.7448 29.4683 41.9743 29.4053 42.1543 29.5088C42.3343 29.6123 42.3928 29.8418 42.2938 30.0218L41.6098 31.2054C41.5378 31.3269 41.4118 31.3944 41.2813 31.3944Z" fill="#483C32"/>
<path fill-rule="evenodd" clip-rule="evenodd" d="M44.4183 34.5261C44.0403 34.5261 43.9008 34.0221 44.2338 33.8286L45.4173 33.1446C45.5973 33.0411 45.8268 33.1041 45.9303 33.2841C46.0338 33.4596 45.9708 33.6891 45.7908 33.7926L44.6073 34.4766C44.5488 34.5126 44.4813 34.5261 44.4183 34.5261Z" fill="#483C32"/>
<path fill-rule="evenodd" clip-rule="evenodd" d="M32.0339 47.4149C31.7459 47.4149 31.5659 47.1044 31.7099 46.8524L32.3939 45.6688C32.4974 45.4888 32.7269 45.4258 32.9024 45.5293C33.0824 45.6328 33.1454 45.8624 33.0419 46.0424L32.3579 47.2259C32.2904 47.3474 32.1644 47.4149 32.0339 47.4149Z" fill="#483C32"/>
<path fill-rule="evenodd" clip-rule="evenodd" d="M28.3981 43.7782C28.0156 43.7782 27.8761 43.2697 28.2091 43.0762L29.3926 42.3967C29.5726 42.2932 29.8021 42.3517 29.9056 42.5317C30.0091 42.7117 29.9461 42.9412 29.7706 43.0447L28.5871 43.7287C28.5241 43.7602 28.4611 43.7782 28.3981 43.7782Z" fill="#483C32"/>
<path fill-rule="evenodd" clip-rule="evenodd" d="M29.581 34.5261C29.518 34.5261 29.4505 34.5126 29.392 34.4766L28.2085 33.7926C28.0285 33.6891 27.97 33.4596 28.0735 33.2841C28.177 33.1041 28.4065 33.0411 28.5865 33.1446L29.77 33.8286C30.0985 34.0176 29.9635 34.5261 29.581 34.5261Z" fill="#483C32"/>
<path fill-rule="evenodd" clip-rule="evenodd" d="M32.7182 31.3944C32.5877 31.3944 32.4617 31.3269 32.3942 31.2054L31.7102 30.0218C31.6067 29.8418 31.6652 29.6123 31.8452 29.5088C32.0252 29.4053 32.2547 29.4683 32.3582 29.6483L33.0422 30.8319C33.1862 31.0794 33.0017 31.3944 32.7182 31.3944Z" fill="#483C32"/>
<path fill-rule="evenodd" clip-rule="evenodd" d="M37.002 39.9939C36.1424 39.9939 35.4404 39.2964 35.4404 38.4369C35.4404 37.5774 36.1424 36.8799 37.002 36.8799C37.857 36.8799 38.559 37.5774 38.559 38.4369C38.559 39.2964 37.857 39.9939 37.002 39.9939ZM37.002 37.6269C36.5564 37.6269 36.1919 37.9914 36.1919 38.4369C36.1919 38.8824 36.5564 39.2424 37.002 39.2424C37.4475 39.2424 37.8075 38.8824 37.8075 38.4369C37.8075 37.9914 37.4475 37.6269 37.002 37.6269Z" fill="#483C32"/>
<path fill-rule="evenodd" clip-rule="evenodd" d="M43.1356 39.6657C43.0681 39.6657 38.5996 39.0447 38.118 38.9772C37.9155 38.9502 37.7715 38.7611 37.7985 38.5586C37.8255 38.3516 38.019 38.2076 38.2215 38.2346L43.1851 38.9187C43.3921 38.9457 43.5361 39.1347 43.5091 39.3417C43.4821 39.5307 43.3201 39.6657 43.1356 39.6657ZM37.002 37.6271C36.795 37.6271 36.624 37.4606 36.624 37.2536V33.6626C36.624 33.4556 36.795 33.2891 37.002 33.2891C37.209 33.2891 37.3755 33.4556 37.3755 33.6626V37.2536C37.3755 37.4606 37.209 37.6271 37.002 37.6271Z" fill="#483C32"/>
<path fill-rule="evenodd" clip-rule="evenodd" d="M27.0168 31.2632C26.9178 31.2632 26.8233 31.2227 26.7513 31.1507L25.7208 30.1202C25.5722 29.9717 25.5722 29.7377 25.7208 29.5892L28.1553 27.1546C28.2993 27.0106 28.5378 27.0061 28.6863 27.1546L29.7168 28.1851C29.8788 28.3471 29.8563 28.6126 29.6763 28.7521C28.7853 29.4272 27.9933 30.2192 27.3138 31.1147C27.2463 31.2047 27.1338 31.2632 27.0168 31.2632ZM26.5173 29.8547L26.9808 30.3227C27.5478 29.6252 28.1868 28.9861 28.8888 28.4191L28.4208 27.9511L26.5173 29.8547Z" fill="#483C32"/>
<path fill-rule="evenodd" clip-rule="evenodd" d="M46.9831 31.2634C46.8661 31.2634 46.7536 31.2094 46.6861 31.1149C46.0111 30.2239 45.2146 29.4274 44.3235 28.7524C44.1435 28.6129 44.1255 28.3474 44.283 28.1899L45.3136 27.1549C45.4621 27.0109 45.7006 27.0109 45.8446 27.1549L48.2791 29.5894C48.4276 29.7379 48.4276 29.9764 48.2791 30.1204L47.2486 31.1554C47.1766 31.2229 47.0821 31.2634 46.9831 31.2634ZM45.1111 28.4194C45.8131 28.9864 46.4521 29.6254 47.0191 30.3229L47.4871 29.8549L45.5791 27.9514L45.1111 28.4194Z" fill="#483C32"/>
<path fill-rule="evenodd" clip-rule="evenodd" d="M49.2152 31.1463C48.9317 31.1463 48.6662 31.0338 48.4637 30.8358L44.5981 26.9702C44.1886 26.5562 44.1886 25.8857 44.5981 25.4717L45.4172 24.6572C45.8312 24.2432 46.5017 24.2432 46.9157 24.6572L50.7812 28.5227C51.1907 28.9323 51.1907 29.6073 50.7812 30.0168L49.9622 30.8358C49.7642 31.0338 49.4987 31.1463 49.2152 31.1463ZM46.1687 25.0982C46.0832 25.0982 46.0067 25.1297 45.9482 25.1882L45.1292 26.0027C45.0122 26.1242 45.0122 26.3177 45.1292 26.4392L48.9947 30.3048C49.1162 30.4263 49.3142 30.4263 49.4312 30.3048L50.2502 29.4903C50.3717 29.3688 50.3717 29.1708 50.2502 29.0538L46.3847 25.1882C46.3262 25.1297 46.2497 25.0982 46.1687 25.0982Z" fill="#483C32"/>
<path fill-rule="evenodd" clip-rule="evenodd" d="M24.7843 31.1463C24.5008 31.1463 24.2353 31.0338 24.0373 30.8358L23.2183 30.0168C22.8088 29.6073 22.8088 28.9323 23.2183 28.5227L27.0883 24.6572C27.4978 24.2432 28.1683 24.2432 28.5823 24.6572L29.4014 25.4717C29.8109 25.8857 29.8109 26.5562 29.4014 26.9702L25.5358 30.8358C25.3333 31.0338 25.0678 31.1463 24.7843 31.1463ZM23.7493 29.0538C23.6323 29.1708 23.6323 29.3688 23.7493 29.4903L24.5683 30.3048C24.6898 30.4263 24.8833 30.4263 25.0048 30.3048L28.8704 26.4392C28.9919 26.3222 28.9919 26.1242 28.8704 26.0027L28.0513 25.1882C27.9343 25.0667 27.7363 25.0667 27.6148 25.1882L23.7493 29.0538Z" fill="#483C32"/>
<path fill-rule="evenodd" clip-rule="evenodd" d="M39.7331 23.2716H34.2655C33.6805 23.2716 33.208 22.799 33.208 22.214V21.0575C33.208 20.4725 33.6805 20 34.2655 20H39.7331C40.3181 20 40.7906 20.477 40.7906 21.0575V22.214C40.7906 22.799 40.3181 23.2716 39.7331 23.2716ZM34.2655 20.7515C34.0945 20.7515 33.9595 20.8865 33.9595 21.0575V22.214C33.9595 22.385 34.0945 22.52 34.2655 22.52H39.7331C39.9041 22.52 40.0436 22.385 40.0436 22.214V21.0575C40.0436 20.8865 39.9041 20.7515 39.7331 20.7515H34.2655Z" fill="#483C32"/>
<path fill-rule="evenodd" clip-rule="evenodd" d="M39.1302 26.4755C39.1077 26.4755 39.0852 26.4755 39.0672 26.471C37.7037 26.237 36.2951 26.237 34.9361 26.471C34.7066 26.5115 34.4951 26.3315 34.4951 26.102V22.8979C34.4951 22.6909 34.6661 22.5244 34.8731 22.5244H39.1302C39.3372 22.5244 39.5037 22.6909 39.5037 22.8979V26.102C39.5037 26.309 39.3372 26.4755 39.1302 26.4755ZM37.0017 25.544C37.5867 25.544 38.1717 25.5845 38.7522 25.6655V23.2714H35.2466V25.6655C35.8271 25.5845 36.4166 25.544 37.0017 25.544Z" fill="#483C32"/>
<path fill-rule="evenodd" clip-rule="evenodd" d="M45.1114 50.7489C44.6209 50.7489 44.2159 50.3754 44.1664 49.8939C43.7884 49.8129 43.2439 49.6284 42.9739 49.2144C42.6859 48.7779 42.8074 48.1884 43.2439 47.9003C43.6129 47.6618 44.0854 47.7023 44.4049 47.9948C44.5669 48.0983 45.5119 48.1479 45.5119 47.8373C45.5119 47.7788 45.5029 47.7698 45.4984 47.7608C45.1699 47.3288 42.8164 47.1443 42.8164 45.1553C42.8164 44.2778 43.3159 43.5758 44.1664 43.2383V43.1888C44.1664 42.6668 44.5894 42.2393 45.1114 42.2393C45.6019 42.2393 46.007 42.6173 46.0565 43.0943C46.4345 43.1798 46.979 43.3643 47.249 43.7783C47.537 44.2148 47.4155 44.8043 46.979 45.0878C46.6145 45.3308 46.1375 45.2903 45.8225 44.9978C45.6605 44.8943 44.7154 44.8448 44.7154 45.1553C44.7154 45.2093 44.7244 45.2228 44.7289 45.2318C45.0529 45.6638 47.4065 45.8483 47.4065 47.8373C47.4065 48.7149 46.907 49.4169 46.061 49.7544V49.8039C46.0565 50.3259 45.6335 50.7489 45.1114 50.7489ZM43.7614 48.4944C43.6084 48.4944 43.5139 48.6699 43.5994 48.8004C43.7209 48.9849 44.1304 49.1559 44.5804 49.2054C44.7694 49.2279 44.9134 49.3854 44.9134 49.5789V49.8039C44.9134 50.0604 45.3094 50.0604 45.3094 49.8039V49.4889C45.3094 49.3179 45.4174 49.1739 45.5794 49.1244C45.98 49.0119 46.655 48.6879 46.655 47.8373C46.655 46.3793 44.7154 46.4423 44.1304 45.6863C43.8559 45.3263 43.9099 44.7458 44.3194 44.4353C44.8864 44.0123 46.052 44.1473 46.313 44.4308C46.475 44.6063 46.754 44.3903 46.6235 44.1878C46.502 44.0078 46.0925 43.8368 45.6425 43.7873C45.4534 43.7648 45.3094 43.6028 45.3094 43.4138V43.1888C45.3094 42.9278 44.9134 42.9278 44.9134 43.1888V43.5038C44.9134 43.6703 44.8054 43.8188 44.6434 43.8638C44.2429 43.9808 43.5679 44.3003 43.5679 45.1553C43.5679 46.6133 45.5074 46.5458 46.0925 47.3063C46.3715 47.6663 46.313 48.2469 45.9035 48.5529C45.3409 48.9759 44.1799 48.8454 43.9099 48.5574C43.8694 48.5169 43.8154 48.4944 43.7614 48.4944Z" fill="#483C32"/>
<path fill-rule="evenodd" clip-rule="evenodd" d="M45.111 52.0003C42.0735 52.0003 39.6074 49.5298 39.6074 46.4968C39.6074 43.4592 42.0735 40.9932 45.111 40.9932C48.1441 40.9932 50.6146 43.4592 50.6146 46.4968C50.6146 49.5298 48.1441 52.0003 45.111 52.0003ZM45.111 41.7402C42.4875 41.7402 40.3544 43.8732 40.3544 46.4968C40.3544 49.1158 42.4875 51.2488 45.111 51.2488C47.7345 51.2488 49.8631 49.1158 49.8631 46.4968C49.8631 43.8732 47.73 41.7402 45.111 41.7402Z" fill="#483C32"/>
</svg>
