<svg width="20" height="21" viewBox="0 0 20 21" fill="none" xmlns="http://www.w3.org/2000/svg">
<path d="M10.4415 17.5167H5.17484C2.5415 17.5167 1.6665 15.7667 1.6665 14.0084V6.99173C1.6665 4.3584 2.5415 3.4834 5.17484 3.4834H10.4415C13.0748 3.4834 13.9498 4.3584 13.9498 6.99173V14.0084C13.9498 16.6417 13.0665 17.5167 10.4415 17.5167Z" stroke="white" stroke-width="1.5" stroke-linecap="round" stroke-linejoin="round"/>
<path d="M16.2669 14.7501L13.9502 13.1251V7.86678L16.2669 6.24178C17.4002 5.45011 18.3335 5.93344 18.3335 7.32511V13.6751C18.3335 15.0668 17.4002 15.5501 16.2669 14.7501Z" stroke="white" stroke-width="1.5" stroke-linecap="round" stroke-linejoin="round"/>
<path d="M9.5835 9.66699C10.2739 9.66699 10.8335 9.10735 10.8335 8.41699C10.8335 7.72664 10.2739 7.16699 9.5835 7.16699C8.89314 7.16699 8.3335 7.72664 8.3335 8.41699C8.3335 9.10735 8.89314 9.66699 9.5835 9.66699Z" stroke="#292D32" stroke-width="1.5" stroke-linecap="round" stroke-linejoin="round"/>
</svg>
